<mxfile host="app.diagrams.net" modified="2024-03-12T14:18:56.665Z" agent="Mozilla/5.0 (Windows NT 10.0; Win64; x64) AppleWebKit/537.36 (KHTML, like Gecko) Chrome/122.0.0.0 Safari/537.36" etag="rQL8w0T6S7QwCvZNSEBj" version="24.0.4" type="github" pages="2">
  <diagram name="ERD" id="9f46799a-70d6-7492-0946-bef42562c5a5">
    <mxGraphModel dx="3062" dy="920" grid="1" gridSize="10" guides="1" tooltips="1" connect="1" arrows="1" fold="1" page="1" pageScale="1" pageWidth="1100" pageHeight="850" background="none" math="0" shadow="0">
      <root>
        <mxCell id="0" />
        <mxCell id="1" parent="0" />
        <mxCell id="57J9HGHEWiLVGIEVYI9T-96" value="Customer" style="shape=table;startSize=30;container=1;collapsible=1;childLayout=tableLayout;fixedRows=1;rowLines=0;fontStyle=1;align=center;resizeLast=1;fillColor=#FFFFFF;" parent="1" vertex="1">
          <mxGeometry x="-760" y="40" width="250" height="302.0000000000001" as="geometry" />
        </mxCell>
        <mxCell id="57J9HGHEWiLVGIEVYI9T-97" value="" style="shape=partialRectangle;collapsible=0;dropTarget=0;pointerEvents=0;fillColor=#FFFFFF;points=[[0,0.5],[1,0.5]];portConstraint=eastwest;top=0;left=0;right=0;bottom=1;" parent="57J9HGHEWiLVGIEVYI9T-96" vertex="1">
          <mxGeometry y="30" width="250" height="30" as="geometry" />
        </mxCell>
        <mxCell id="57J9HGHEWiLVGIEVYI9T-98" value="PK" style="shape=partialRectangle;overflow=hidden;connectable=0;fillColor=#FFFFFF;top=0;left=0;bottom=0;right=0;fontStyle=1;" parent="57J9HGHEWiLVGIEVYI9T-97" vertex="1">
          <mxGeometry width="30" height="30" as="geometry">
            <mxRectangle width="30" height="30" as="alternateBounds" />
          </mxGeometry>
        </mxCell>
        <mxCell id="57J9HGHEWiLVGIEVYI9T-99" value="customer_id [bigint]" style="shape=partialRectangle;overflow=hidden;connectable=0;fillColor=#FFFFFF;top=0;left=0;bottom=0;right=0;align=left;spacingLeft=6;fontStyle=1;" parent="57J9HGHEWiLVGIEVYI9T-97" vertex="1">
          <mxGeometry x="30" width="220" height="30" as="geometry">
            <mxRectangle width="220" height="30" as="alternateBounds" />
          </mxGeometry>
        </mxCell>
        <mxCell id="FZp34ey01rAOAzYDmTqa-32" style="shape=partialRectangle;collapsible=0;dropTarget=0;pointerEvents=0;fillColor=#FFFFFF;points=[[0,0.5],[1,0.5]];portConstraint=eastwest;top=0;left=0;right=0;bottom=0;" parent="57J9HGHEWiLVGIEVYI9T-96" vertex="1">
          <mxGeometry y="60" width="250" height="30" as="geometry" />
        </mxCell>
        <mxCell id="FZp34ey01rAOAzYDmTqa-33" value="FK" style="shape=partialRectangle;overflow=hidden;connectable=0;fillColor=#FFFFFF;top=0;left=0;bottom=0;right=0;" parent="FZp34ey01rAOAzYDmTqa-32" vertex="1">
          <mxGeometry width="30" height="30" as="geometry">
            <mxRectangle width="30" height="30" as="alternateBounds" />
          </mxGeometry>
        </mxCell>
        <mxCell id="FZp34ey01rAOAzYDmTqa-34" value="user_id [bigint]" style="shape=partialRectangle;overflow=hidden;connectable=0;fillColor=#FFFFFF;top=0;left=0;bottom=0;right=0;align=left;spacingLeft=6;" parent="FZp34ey01rAOAzYDmTqa-32" vertex="1">
          <mxGeometry x="30" width="220" height="30" as="geometry">
            <mxRectangle width="220" height="30" as="alternateBounds" />
          </mxGeometry>
        </mxCell>
        <mxCell id="57J9HGHEWiLVGIEVYI9T-100" value="" style="shape=partialRectangle;collapsible=0;dropTarget=0;pointerEvents=0;fillColor=#FFFFFF;points=[[0,0.5],[1,0.5]];portConstraint=eastwest;top=0;left=0;right=0;bottom=0;" parent="57J9HGHEWiLVGIEVYI9T-96" vertex="1">
          <mxGeometry y="90" width="250" height="30" as="geometry" />
        </mxCell>
        <mxCell id="57J9HGHEWiLVGIEVYI9T-101" value="" style="shape=partialRectangle;overflow=hidden;connectable=0;fillColor=#FFFFFF;top=0;left=0;bottom=0;right=0;" parent="57J9HGHEWiLVGIEVYI9T-100" vertex="1">
          <mxGeometry width="30" height="30" as="geometry">
            <mxRectangle width="30" height="30" as="alternateBounds" />
          </mxGeometry>
        </mxCell>
        <mxCell id="57J9HGHEWiLVGIEVYI9T-102" value="first_name [varchar(255)]" style="shape=partialRectangle;overflow=hidden;connectable=0;fillColor=#FFFFFF;top=0;left=0;bottom=0;right=0;align=left;spacingLeft=6;" parent="57J9HGHEWiLVGIEVYI9T-100" vertex="1">
          <mxGeometry x="30" width="220" height="30" as="geometry">
            <mxRectangle width="220" height="30" as="alternateBounds" />
          </mxGeometry>
        </mxCell>
        <mxCell id="57J9HGHEWiLVGIEVYI9T-151" value="" style="shape=partialRectangle;collapsible=0;dropTarget=0;pointerEvents=0;fillColor=#FFFFFF;points=[[0,0.5],[1,0.5]];portConstraint=eastwest;top=0;left=0;right=0;bottom=0;" parent="57J9HGHEWiLVGIEVYI9T-96" vertex="1">
          <mxGeometry y="120" width="250" height="30" as="geometry" />
        </mxCell>
        <mxCell id="57J9HGHEWiLVGIEVYI9T-152" value="" style="shape=partialRectangle;overflow=hidden;connectable=0;fillColor=#FFFFFF;top=0;left=0;bottom=0;right=0;" parent="57J9HGHEWiLVGIEVYI9T-151" vertex="1">
          <mxGeometry width="30" height="30" as="geometry">
            <mxRectangle width="30" height="30" as="alternateBounds" />
          </mxGeometry>
        </mxCell>
        <mxCell id="57J9HGHEWiLVGIEVYI9T-153" value="last_name [varchar(255)]" style="shape=partialRectangle;overflow=hidden;connectable=0;fillColor=#FFFFFF;top=0;left=0;bottom=0;right=0;align=left;spacingLeft=6;" parent="57J9HGHEWiLVGIEVYI9T-151" vertex="1">
          <mxGeometry x="30" width="220" height="30" as="geometry">
            <mxRectangle width="220" height="30" as="alternateBounds" />
          </mxGeometry>
        </mxCell>
        <mxCell id="57J9HGHEWiLVGIEVYI9T-103" value="" style="shape=partialRectangle;collapsible=0;dropTarget=0;pointerEvents=0;fillColor=#FFFFFF;points=[[0,0.5],[1,0.5]];portConstraint=eastwest;top=0;left=0;right=0;bottom=0;" parent="57J9HGHEWiLVGIEVYI9T-96" vertex="1">
          <mxGeometry y="150" width="250" height="32" as="geometry" />
        </mxCell>
        <mxCell id="57J9HGHEWiLVGIEVYI9T-104" value="" style="shape=partialRectangle;overflow=hidden;connectable=0;fillColor=#FFFFFF;top=0;left=0;bottom=0;right=0;" parent="57J9HGHEWiLVGIEVYI9T-103" vertex="1">
          <mxGeometry width="30" height="32" as="geometry">
            <mxRectangle width="30" height="32" as="alternateBounds" />
          </mxGeometry>
        </mxCell>
        <mxCell id="57J9HGHEWiLVGIEVYI9T-105" value="phone_number [varchar(15)]" style="shape=partialRectangle;overflow=hidden;connectable=0;fillColor=#FFFFFF;top=0;left=0;bottom=0;right=0;align=left;spacingLeft=6;" parent="57J9HGHEWiLVGIEVYI9T-103" vertex="1">
          <mxGeometry x="30" width="220" height="32" as="geometry">
            <mxRectangle width="220" height="32" as="alternateBounds" />
          </mxGeometry>
        </mxCell>
        <mxCell id="57J9HGHEWiLVGIEVYI9T-133" value="" style="shape=partialRectangle;collapsible=0;dropTarget=0;pointerEvents=0;fillColor=#FFFFFF;points=[[0,0.5],[1,0.5]];portConstraint=eastwest;top=0;left=0;right=0;bottom=0;" parent="57J9HGHEWiLVGIEVYI9T-96" vertex="1">
          <mxGeometry y="182" width="250" height="30" as="geometry" />
        </mxCell>
        <mxCell id="57J9HGHEWiLVGIEVYI9T-134" value="" style="shape=partialRectangle;overflow=hidden;connectable=0;fillColor=#FFFFFF;top=0;left=0;bottom=0;right=0;" parent="57J9HGHEWiLVGIEVYI9T-133" vertex="1">
          <mxGeometry width="30" height="30" as="geometry">
            <mxRectangle width="30" height="30" as="alternateBounds" />
          </mxGeometry>
        </mxCell>
        <mxCell id="57J9HGHEWiLVGIEVYI9T-135" value="address [varchar(255)]" style="shape=partialRectangle;overflow=hidden;connectable=0;fillColor=#FFFFFF;top=0;left=0;bottom=0;right=0;align=left;spacingLeft=6;" parent="57J9HGHEWiLVGIEVYI9T-133" vertex="1">
          <mxGeometry x="30" width="220" height="30" as="geometry">
            <mxRectangle width="220" height="30" as="alternateBounds" />
          </mxGeometry>
        </mxCell>
        <mxCell id="57J9HGHEWiLVGIEVYI9T-154" value="" style="shape=partialRectangle;collapsible=0;dropTarget=0;pointerEvents=0;fillColor=#FFFFFF;points=[[0,0.5],[1,0.5]];portConstraint=eastwest;top=0;left=0;right=0;bottom=0;" parent="57J9HGHEWiLVGIEVYI9T-96" vertex="1">
          <mxGeometry y="212" width="250" height="30" as="geometry" />
        </mxCell>
        <mxCell id="57J9HGHEWiLVGIEVYI9T-155" value="" style="shape=partialRectangle;overflow=hidden;connectable=0;fillColor=#FFFFFF;top=0;left=0;bottom=0;right=0;" parent="57J9HGHEWiLVGIEVYI9T-154" vertex="1">
          <mxGeometry width="30" height="30" as="geometry">
            <mxRectangle width="30" height="30" as="alternateBounds" />
          </mxGeometry>
        </mxCell>
        <mxCell id="57J9HGHEWiLVGIEVYI9T-156" value="house_number [varchar(4)]" style="shape=partialRectangle;overflow=hidden;connectable=0;fillColor=#FFFFFF;top=0;left=0;bottom=0;right=0;align=left;spacingLeft=6;" parent="57J9HGHEWiLVGIEVYI9T-154" vertex="1">
          <mxGeometry x="30" width="220" height="30" as="geometry">
            <mxRectangle width="220" height="30" as="alternateBounds" />
          </mxGeometry>
        </mxCell>
        <mxCell id="57J9HGHEWiLVGIEVYI9T-112" value="" style="shape=partialRectangle;collapsible=0;dropTarget=0;pointerEvents=0;fillColor=#FFFFFF;points=[[0,0.5],[1,0.5]];portConstraint=eastwest;top=0;left=0;right=0;bottom=0;" parent="57J9HGHEWiLVGIEVYI9T-96" vertex="1">
          <mxGeometry y="242" width="250" height="30" as="geometry" />
        </mxCell>
        <mxCell id="57J9HGHEWiLVGIEVYI9T-113" value="" style="shape=partialRectangle;overflow=hidden;connectable=0;fillColor=#FFFFFF;top=0;left=0;bottom=0;right=0;" parent="57J9HGHEWiLVGIEVYI9T-112" vertex="1">
          <mxGeometry width="30" height="30" as="geometry">
            <mxRectangle width="30" height="30" as="alternateBounds" />
          </mxGeometry>
        </mxCell>
        <mxCell id="57J9HGHEWiLVGIEVYI9T-114" value="created_at [timestamp]" style="shape=partialRectangle;overflow=hidden;connectable=0;fillColor=#FFFFFF;top=0;left=0;bottom=0;right=0;align=left;spacingLeft=6;" parent="57J9HGHEWiLVGIEVYI9T-112" vertex="1">
          <mxGeometry x="30" width="220" height="30" as="geometry">
            <mxRectangle width="220" height="30" as="alternateBounds" />
          </mxGeometry>
        </mxCell>
        <mxCell id="57J9HGHEWiLVGIEVYI9T-115" value="" style="shape=partialRectangle;collapsible=0;dropTarget=0;pointerEvents=0;fillColor=#FFFFFF;points=[[0,0.5],[1,0.5]];portConstraint=eastwest;top=0;left=0;right=0;bottom=0;" parent="57J9HGHEWiLVGIEVYI9T-96" vertex="1">
          <mxGeometry y="272" width="250" height="30" as="geometry" />
        </mxCell>
        <mxCell id="57J9HGHEWiLVGIEVYI9T-116" value="" style="shape=partialRectangle;overflow=hidden;connectable=0;fillColor=#FFFFFF;top=0;left=0;bottom=0;right=0;" parent="57J9HGHEWiLVGIEVYI9T-115" vertex="1">
          <mxGeometry width="30" height="30" as="geometry">
            <mxRectangle width="30" height="30" as="alternateBounds" />
          </mxGeometry>
        </mxCell>
        <mxCell id="57J9HGHEWiLVGIEVYI9T-117" value="updated_at [timestamp]" style="shape=partialRectangle;overflow=hidden;connectable=0;fillColor=#FFFFFF;top=0;left=0;bottom=0;right=0;align=left;spacingLeft=6;" parent="57J9HGHEWiLVGIEVYI9T-115" vertex="1">
          <mxGeometry x="30" width="220" height="30" as="geometry">
            <mxRectangle width="220" height="30" as="alternateBounds" />
          </mxGeometry>
        </mxCell>
        <mxCell id="57J9HGHEWiLVGIEVYI9T-223" value="Product" style="shape=table;startSize=30;container=1;collapsible=1;childLayout=tableLayout;fixedRows=1;rowLines=0;fontStyle=1;align=center;resizeLast=1;fillColor=#FFFFFF;" parent="1" vertex="1">
          <mxGeometry x="190" y="180" width="250" height="360.0000000000001" as="geometry" />
        </mxCell>
        <mxCell id="57J9HGHEWiLVGIEVYI9T-224" value="" style="shape=partialRectangle;collapsible=0;dropTarget=0;pointerEvents=0;fillColor=#FFFFFF;points=[[0,0.5],[1,0.5]];portConstraint=eastwest;top=0;left=0;right=0;bottom=1;" parent="57J9HGHEWiLVGIEVYI9T-223" vertex="1">
          <mxGeometry y="30" width="250" height="30" as="geometry" />
        </mxCell>
        <mxCell id="57J9HGHEWiLVGIEVYI9T-225" value="PK" style="shape=partialRectangle;overflow=hidden;connectable=0;fillColor=#FFFFFF;top=0;left=0;bottom=0;right=0;fontStyle=1;" parent="57J9HGHEWiLVGIEVYI9T-224" vertex="1">
          <mxGeometry width="30" height="30" as="geometry">
            <mxRectangle width="30" height="30" as="alternateBounds" />
          </mxGeometry>
        </mxCell>
        <mxCell id="57J9HGHEWiLVGIEVYI9T-226" value="product_id [bigint]" style="shape=partialRectangle;overflow=hidden;connectable=0;fillColor=#FFFFFF;top=0;left=0;bottom=0;right=0;align=left;spacingLeft=6;fontStyle=1;" parent="57J9HGHEWiLVGIEVYI9T-224" vertex="1">
          <mxGeometry x="30" width="220" height="30" as="geometry">
            <mxRectangle width="220" height="30" as="alternateBounds" />
          </mxGeometry>
        </mxCell>
        <mxCell id="57J9HGHEWiLVGIEVYI9T-227" value="" style="shape=partialRectangle;collapsible=0;dropTarget=0;pointerEvents=0;fillColor=#FFFFFF;points=[[0,0.5],[1,0.5]];portConstraint=eastwest;top=0;left=0;right=0;bottom=0;" parent="57J9HGHEWiLVGIEVYI9T-223" vertex="1">
          <mxGeometry y="60" width="250" height="30" as="geometry" />
        </mxCell>
        <mxCell id="57J9HGHEWiLVGIEVYI9T-228" value="FK" style="shape=partialRectangle;overflow=hidden;connectable=0;fillColor=#FFFFFF;top=0;left=0;bottom=0;right=0;" parent="57J9HGHEWiLVGIEVYI9T-227" vertex="1">
          <mxGeometry width="30" height="30" as="geometry">
            <mxRectangle width="30" height="30" as="alternateBounds" />
          </mxGeometry>
        </mxCell>
        <mxCell id="57J9HGHEWiLVGIEVYI9T-229" value="brand_id [bigint]" style="shape=partialRectangle;overflow=hidden;connectable=0;fillColor=#FFFFFF;top=0;left=0;bottom=0;right=0;align=left;spacingLeft=6;" parent="57J9HGHEWiLVGIEVYI9T-227" vertex="1">
          <mxGeometry x="30" width="220" height="30" as="geometry">
            <mxRectangle width="220" height="30" as="alternateBounds" />
          </mxGeometry>
        </mxCell>
        <mxCell id="57J9HGHEWiLVGIEVYI9T-230" value="" style="shape=partialRectangle;collapsible=0;dropTarget=0;pointerEvents=0;fillColor=#FFFFFF;points=[[0,0.5],[1,0.5]];portConstraint=eastwest;top=0;left=0;right=0;bottom=0;" parent="57J9HGHEWiLVGIEVYI9T-223" vertex="1">
          <mxGeometry y="90" width="250" height="30" as="geometry" />
        </mxCell>
        <mxCell id="57J9HGHEWiLVGIEVYI9T-231" value="" style="shape=partialRectangle;overflow=hidden;connectable=0;fillColor=#FFFFFF;top=0;left=0;bottom=0;right=0;" parent="57J9HGHEWiLVGIEVYI9T-230" vertex="1">
          <mxGeometry width="30" height="30" as="geometry">
            <mxRectangle width="30" height="30" as="alternateBounds" />
          </mxGeometry>
        </mxCell>
        <mxCell id="57J9HGHEWiLVGIEVYI9T-232" value="product_name [varchar(255)]" style="shape=partialRectangle;overflow=hidden;connectable=0;fillColor=#FFFFFF;top=0;left=0;bottom=0;right=0;align=left;spacingLeft=6;" parent="57J9HGHEWiLVGIEVYI9T-230" vertex="1">
          <mxGeometry x="30" width="220" height="30" as="geometry">
            <mxRectangle width="220" height="30" as="alternateBounds" />
          </mxGeometry>
        </mxCell>
        <mxCell id="xStQqFgwTeNVZgLSSUwS-29" style="shape=partialRectangle;collapsible=0;dropTarget=0;pointerEvents=0;fillColor=#FFFFFF;points=[[0,0.5],[1,0.5]];portConstraint=eastwest;top=0;left=0;right=0;bottom=0;" parent="57J9HGHEWiLVGIEVYI9T-223" vertex="1">
          <mxGeometry y="120" width="250" height="30" as="geometry" />
        </mxCell>
        <mxCell id="xStQqFgwTeNVZgLSSUwS-30" style="shape=partialRectangle;overflow=hidden;connectable=0;fillColor=#FFFFFF;top=0;left=0;bottom=0;right=0;" parent="xStQqFgwTeNVZgLSSUwS-29" vertex="1">
          <mxGeometry width="30" height="30" as="geometry">
            <mxRectangle width="30" height="30" as="alternateBounds" />
          </mxGeometry>
        </mxCell>
        <mxCell id="xStQqFgwTeNVZgLSSUwS-31" value="product_stock [integer(4)]" style="shape=partialRectangle;overflow=hidden;connectable=0;fillColor=#FFFFFF;top=0;left=0;bottom=0;right=0;align=left;spacingLeft=6;" parent="xStQqFgwTeNVZgLSSUwS-29" vertex="1">
          <mxGeometry x="30" width="220" height="30" as="geometry">
            <mxRectangle width="220" height="30" as="alternateBounds" />
          </mxGeometry>
        </mxCell>
        <mxCell id="xStQqFgwTeNVZgLSSUwS-32" style="shape=partialRectangle;collapsible=0;dropTarget=0;pointerEvents=0;fillColor=#FFFFFF;points=[[0,0.5],[1,0.5]];portConstraint=eastwest;top=0;left=0;right=0;bottom=0;" parent="57J9HGHEWiLVGIEVYI9T-223" vertex="1">
          <mxGeometry y="150" width="250" height="30" as="geometry" />
        </mxCell>
        <mxCell id="xStQqFgwTeNVZgLSSUwS-33" style="shape=partialRectangle;overflow=hidden;connectable=0;fillColor=#FFFFFF;top=0;left=0;bottom=0;right=0;" parent="xStQqFgwTeNVZgLSSUwS-32" vertex="1">
          <mxGeometry width="30" height="30" as="geometry">
            <mxRectangle width="30" height="30" as="alternateBounds" />
          </mxGeometry>
        </mxCell>
        <mxCell id="xStQqFgwTeNVZgLSSUwS-34" value="product_price [decimal (10,20]" style="shape=partialRectangle;overflow=hidden;connectable=0;fillColor=#FFFFFF;top=0;left=0;bottom=0;right=0;align=left;spacingLeft=6;" parent="xStQqFgwTeNVZgLSSUwS-32" vertex="1">
          <mxGeometry x="30" width="220" height="30" as="geometry">
            <mxRectangle width="220" height="30" as="alternateBounds" />
          </mxGeometry>
        </mxCell>
        <mxCell id="axUUv2KypCi063YYUATD-1" style="shape=partialRectangle;collapsible=0;dropTarget=0;pointerEvents=0;fillColor=#FFFFFF;points=[[0,0.5],[1,0.5]];portConstraint=eastwest;top=0;left=0;right=0;bottom=0;" parent="57J9HGHEWiLVGIEVYI9T-223" vertex="1">
          <mxGeometry y="180" width="250" height="30" as="geometry" />
        </mxCell>
        <mxCell id="axUUv2KypCi063YYUATD-2" style="shape=partialRectangle;overflow=hidden;connectable=0;fillColor=#FFFFFF;top=0;left=0;bottom=0;right=0;" parent="axUUv2KypCi063YYUATD-1" vertex="1">
          <mxGeometry width="30" height="30" as="geometry">
            <mxRectangle width="30" height="30" as="alternateBounds" />
          </mxGeometry>
        </mxCell>
        <mxCell id="axUUv2KypCi063YYUATD-3" value="product_size [varchar(255)]" style="shape=partialRectangle;overflow=hidden;connectable=0;fillColor=#FFFFFF;top=0;left=0;bottom=0;right=0;align=left;spacingLeft=6;" parent="axUUv2KypCi063YYUATD-1" vertex="1">
          <mxGeometry x="30" width="220" height="30" as="geometry">
            <mxRectangle width="220" height="30" as="alternateBounds" />
          </mxGeometry>
        </mxCell>
        <mxCell id="axUUv2KypCi063YYUATD-4" style="shape=partialRectangle;collapsible=0;dropTarget=0;pointerEvents=0;fillColor=#FFFFFF;points=[[0,0.5],[1,0.5]];portConstraint=eastwest;top=0;left=0;right=0;bottom=0;" parent="57J9HGHEWiLVGIEVYI9T-223" vertex="1">
          <mxGeometry y="210" width="250" height="30" as="geometry" />
        </mxCell>
        <mxCell id="axUUv2KypCi063YYUATD-5" style="shape=partialRectangle;overflow=hidden;connectable=0;fillColor=#FFFFFF;top=0;left=0;bottom=0;right=0;" parent="axUUv2KypCi063YYUATD-4" vertex="1">
          <mxGeometry width="30" height="30" as="geometry">
            <mxRectangle width="30" height="30" as="alternateBounds" />
          </mxGeometry>
        </mxCell>
        <mxCell id="axUUv2KypCi063YYUATD-6" value="product_description [varchar(255)]" style="shape=partialRectangle;overflow=hidden;connectable=0;fillColor=#FFFFFF;top=0;left=0;bottom=0;right=0;align=left;spacingLeft=6;" parent="axUUv2KypCi063YYUATD-4" vertex="1">
          <mxGeometry x="30" width="220" height="30" as="geometry">
            <mxRectangle width="220" height="30" as="alternateBounds" />
          </mxGeometry>
        </mxCell>
        <mxCell id="axUUv2KypCi063YYUATD-68" style="shape=partialRectangle;collapsible=0;dropTarget=0;pointerEvents=0;fillColor=#FFFFFF;points=[[0,0.5],[1,0.5]];portConstraint=eastwest;top=0;left=0;right=0;bottom=0;" parent="57J9HGHEWiLVGIEVYI9T-223" vertex="1">
          <mxGeometry y="240" width="250" height="30" as="geometry" />
        </mxCell>
        <mxCell id="axUUv2KypCi063YYUATD-69" style="shape=partialRectangle;overflow=hidden;connectable=0;fillColor=#FFFFFF;top=0;left=0;bottom=0;right=0;" parent="axUUv2KypCi063YYUATD-68" vertex="1">
          <mxGeometry width="30" height="30" as="geometry">
            <mxRectangle width="30" height="30" as="alternateBounds" />
          </mxGeometry>
        </mxCell>
        <mxCell id="axUUv2KypCi063YYUATD-70" value="product_image_url [varchar(255)]" style="shape=partialRectangle;overflow=hidden;connectable=0;fillColor=#FFFFFF;top=0;left=0;bottom=0;right=0;align=left;spacingLeft=6;" parent="axUUv2KypCi063YYUATD-68" vertex="1">
          <mxGeometry x="30" width="220" height="30" as="geometry">
            <mxRectangle width="220" height="30" as="alternateBounds" />
          </mxGeometry>
        </mxCell>
        <mxCell id="h3JEGPcKmmR4Bn5Vx9Nj-126" style="shape=partialRectangle;collapsible=0;dropTarget=0;pointerEvents=0;fillColor=#FFFFFF;points=[[0,0.5],[1,0.5]];portConstraint=eastwest;top=0;left=0;right=0;bottom=0;" vertex="1" parent="57J9HGHEWiLVGIEVYI9T-223">
          <mxGeometry y="270" width="250" height="30" as="geometry" />
        </mxCell>
        <mxCell id="h3JEGPcKmmR4Bn5Vx9Nj-127" style="shape=partialRectangle;overflow=hidden;connectable=0;fillColor=#FFFFFF;top=0;left=0;bottom=0;right=0;" vertex="1" parent="h3JEGPcKmmR4Bn5Vx9Nj-126">
          <mxGeometry width="30" height="30" as="geometry">
            <mxRectangle width="30" height="30" as="alternateBounds" />
          </mxGeometry>
        </mxCell>
        <mxCell id="h3JEGPcKmmR4Bn5Vx9Nj-128" value="listing_status [varchar(10)]" style="shape=partialRectangle;overflow=hidden;connectable=0;fillColor=#FFFFFF;top=0;left=0;bottom=0;right=0;align=left;spacingLeft=6;" vertex="1" parent="h3JEGPcKmmR4Bn5Vx9Nj-126">
          <mxGeometry x="30" width="220" height="30" as="geometry">
            <mxRectangle width="220" height="30" as="alternateBounds" />
          </mxGeometry>
        </mxCell>
        <mxCell id="axUUv2KypCi063YYUATD-42" style="shape=partialRectangle;collapsible=0;dropTarget=0;pointerEvents=0;fillColor=#FFFFFF;points=[[0,0.5],[1,0.5]];portConstraint=eastwest;top=0;left=0;right=0;bottom=0;" parent="57J9HGHEWiLVGIEVYI9T-223" vertex="1">
          <mxGeometry y="300" width="250" height="30" as="geometry" />
        </mxCell>
        <mxCell id="axUUv2KypCi063YYUATD-43" style="shape=partialRectangle;overflow=hidden;connectable=0;fillColor=#FFFFFF;top=0;left=0;bottom=0;right=0;" parent="axUUv2KypCi063YYUATD-42" vertex="1">
          <mxGeometry width="30" height="30" as="geometry">
            <mxRectangle width="30" height="30" as="alternateBounds" />
          </mxGeometry>
        </mxCell>
        <mxCell id="axUUv2KypCi063YYUATD-44" value="created_at [timestamp]" style="shape=partialRectangle;overflow=hidden;connectable=0;fillColor=#FFFFFF;top=0;left=0;bottom=0;right=0;align=left;spacingLeft=6;" parent="axUUv2KypCi063YYUATD-42" vertex="1">
          <mxGeometry x="30" width="220" height="30" as="geometry">
            <mxRectangle width="220" height="30" as="alternateBounds" />
          </mxGeometry>
        </mxCell>
        <mxCell id="axUUv2KypCi063YYUATD-45" style="shape=partialRectangle;collapsible=0;dropTarget=0;pointerEvents=0;fillColor=#FFFFFF;points=[[0,0.5],[1,0.5]];portConstraint=eastwest;top=0;left=0;right=0;bottom=0;" parent="57J9HGHEWiLVGIEVYI9T-223" vertex="1">
          <mxGeometry y="330" width="250" height="30" as="geometry" />
        </mxCell>
        <mxCell id="axUUv2KypCi063YYUATD-46" style="shape=partialRectangle;overflow=hidden;connectable=0;fillColor=#FFFFFF;top=0;left=0;bottom=0;right=0;" parent="axUUv2KypCi063YYUATD-45" vertex="1">
          <mxGeometry width="30" height="30" as="geometry">
            <mxRectangle width="30" height="30" as="alternateBounds" />
          </mxGeometry>
        </mxCell>
        <mxCell id="axUUv2KypCi063YYUATD-47" value="updated_at [timestamp]" style="shape=partialRectangle;overflow=hidden;connectable=0;fillColor=#FFFFFF;top=0;left=0;bottom=0;right=0;align=left;spacingLeft=6;" parent="axUUv2KypCi063YYUATD-45" vertex="1">
          <mxGeometry x="30" width="220" height="30" as="geometry">
            <mxRectangle width="220" height="30" as="alternateBounds" />
          </mxGeometry>
        </mxCell>
        <mxCell id="FZp34ey01rAOAzYDmTqa-1" value="User" style="shape=table;startSize=30;container=1;collapsible=1;childLayout=tableLayout;fixedRows=1;rowLines=0;fontStyle=1;align=center;resizeLast=1;fillColor=#FFFFFF;" parent="1" vertex="1">
          <mxGeometry x="-1080" y="40" width="250" height="210.0000000000001" as="geometry" />
        </mxCell>
        <mxCell id="FZp34ey01rAOAzYDmTqa-2" value="" style="shape=partialRectangle;collapsible=0;dropTarget=0;pointerEvents=0;fillColor=#FFFFFF;points=[[0,0.5],[1,0.5]];portConstraint=eastwest;top=0;left=0;right=0;bottom=1;" parent="FZp34ey01rAOAzYDmTqa-1" vertex="1">
          <mxGeometry y="30" width="250" height="30" as="geometry" />
        </mxCell>
        <mxCell id="FZp34ey01rAOAzYDmTqa-3" value="PK" style="shape=partialRectangle;overflow=hidden;connectable=0;fillColor=#FFFFFF;top=0;left=0;bottom=0;right=0;fontStyle=1;" parent="FZp34ey01rAOAzYDmTqa-2" vertex="1">
          <mxGeometry width="30" height="30" as="geometry">
            <mxRectangle width="30" height="30" as="alternateBounds" />
          </mxGeometry>
        </mxCell>
        <mxCell id="FZp34ey01rAOAzYDmTqa-4" value="user_id [bigint]" style="shape=partialRectangle;overflow=hidden;connectable=0;fillColor=#FFFFFF;top=0;left=0;bottom=0;right=0;align=left;spacingLeft=6;fontStyle=1;strokeColor=default;" parent="FZp34ey01rAOAzYDmTqa-2" vertex="1">
          <mxGeometry x="30" width="220" height="30" as="geometry">
            <mxRectangle width="220" height="30" as="alternateBounds" />
          </mxGeometry>
        </mxCell>
        <mxCell id="FZp34ey01rAOAzYDmTqa-5" value="" style="shape=partialRectangle;collapsible=0;dropTarget=0;pointerEvents=0;fillColor=#FFFFFF;points=[[0,0.5],[1,0.5]];portConstraint=eastwest;top=0;left=0;right=0;bottom=0;" parent="FZp34ey01rAOAzYDmTqa-1" vertex="1">
          <mxGeometry y="60" width="250" height="30" as="geometry" />
        </mxCell>
        <mxCell id="FZp34ey01rAOAzYDmTqa-6" value="" style="shape=partialRectangle;overflow=hidden;connectable=0;fillColor=#FFFFFF;top=0;left=0;bottom=0;right=0;" parent="FZp34ey01rAOAzYDmTqa-5" vertex="1">
          <mxGeometry width="30" height="30" as="geometry">
            <mxRectangle width="30" height="30" as="alternateBounds" />
          </mxGeometry>
        </mxCell>
        <mxCell id="FZp34ey01rAOAzYDmTqa-7" value="user_email [varchar(255)]" style="shape=partialRectangle;overflow=hidden;connectable=0;fillColor=#FFFFFF;top=0;left=0;bottom=0;right=0;align=left;spacingLeft=6;" parent="FZp34ey01rAOAzYDmTqa-5" vertex="1">
          <mxGeometry x="30" width="220" height="30" as="geometry">
            <mxRectangle width="220" height="30" as="alternateBounds" />
          </mxGeometry>
        </mxCell>
        <mxCell id="FZp34ey01rAOAzYDmTqa-8" value="" style="shape=partialRectangle;collapsible=0;dropTarget=0;pointerEvents=0;fillColor=#FFFFFF;points=[[0,0.5],[1,0.5]];portConstraint=eastwest;top=0;left=0;right=0;bottom=0;" parent="FZp34ey01rAOAzYDmTqa-1" vertex="1">
          <mxGeometry y="90" width="250" height="30" as="geometry" />
        </mxCell>
        <mxCell id="FZp34ey01rAOAzYDmTqa-9" value="" style="shape=partialRectangle;overflow=hidden;connectable=0;fillColor=#FFFFFF;top=0;left=0;bottom=0;right=0;" parent="FZp34ey01rAOAzYDmTqa-8" vertex="1">
          <mxGeometry width="30" height="30" as="geometry">
            <mxRectangle width="30" height="30" as="alternateBounds" />
          </mxGeometry>
        </mxCell>
        <mxCell id="FZp34ey01rAOAzYDmTqa-10" value="user_password [varchar(255)]" style="shape=partialRectangle;overflow=hidden;connectable=0;fillColor=#FFFFFF;top=0;left=0;bottom=0;right=0;align=left;spacingLeft=6;" parent="FZp34ey01rAOAzYDmTqa-8" vertex="1">
          <mxGeometry x="30" width="220" height="30" as="geometry">
            <mxRectangle width="220" height="30" as="alternateBounds" />
          </mxGeometry>
        </mxCell>
        <mxCell id="h3JEGPcKmmR4Bn5Vx9Nj-1" style="shape=partialRectangle;collapsible=0;dropTarget=0;pointerEvents=0;fillColor=#FFFFFF;points=[[0,0.5],[1,0.5]];portConstraint=eastwest;top=0;left=0;right=0;bottom=0;" vertex="1" parent="FZp34ey01rAOAzYDmTqa-1">
          <mxGeometry y="120" width="250" height="30" as="geometry" />
        </mxCell>
        <mxCell id="h3JEGPcKmmR4Bn5Vx9Nj-2" style="shape=partialRectangle;overflow=hidden;connectable=0;fillColor=#FFFFFF;top=0;left=0;bottom=0;right=0;" vertex="1" parent="h3JEGPcKmmR4Bn5Vx9Nj-1">
          <mxGeometry width="30" height="30" as="geometry">
            <mxRectangle width="30" height="30" as="alternateBounds" />
          </mxGeometry>
        </mxCell>
        <mxCell id="h3JEGPcKmmR4Bn5Vx9Nj-3" value="role_id [bigint]" style="shape=partialRectangle;overflow=hidden;connectable=0;fillColor=#FFFFFF;top=0;left=0;bottom=0;right=0;align=left;spacingLeft=6;" vertex="1" parent="h3JEGPcKmmR4Bn5Vx9Nj-1">
          <mxGeometry x="30" width="220" height="30" as="geometry">
            <mxRectangle width="220" height="30" as="alternateBounds" />
          </mxGeometry>
        </mxCell>
        <mxCell id="FZp34ey01rAOAzYDmTqa-26" value="" style="shape=partialRectangle;collapsible=0;dropTarget=0;pointerEvents=0;fillColor=#FFFFFF;points=[[0,0.5],[1,0.5]];portConstraint=eastwest;top=0;left=0;right=0;bottom=0;" parent="FZp34ey01rAOAzYDmTqa-1" vertex="1">
          <mxGeometry y="150" width="250" height="30" as="geometry" />
        </mxCell>
        <mxCell id="FZp34ey01rAOAzYDmTqa-27" value="" style="shape=partialRectangle;overflow=hidden;connectable=0;fillColor=#FFFFFF;top=0;left=0;bottom=0;right=0;" parent="FZp34ey01rAOAzYDmTqa-26" vertex="1">
          <mxGeometry width="30" height="30" as="geometry">
            <mxRectangle width="30" height="30" as="alternateBounds" />
          </mxGeometry>
        </mxCell>
        <mxCell id="FZp34ey01rAOAzYDmTqa-28" value="created_at [timestamp]" style="shape=partialRectangle;overflow=hidden;connectable=0;fillColor=#FFFFFF;top=0;left=0;bottom=0;right=0;align=left;spacingLeft=6;" parent="FZp34ey01rAOAzYDmTqa-26" vertex="1">
          <mxGeometry x="30" width="220" height="30" as="geometry">
            <mxRectangle width="220" height="30" as="alternateBounds" />
          </mxGeometry>
        </mxCell>
        <mxCell id="FZp34ey01rAOAzYDmTqa-29" value="" style="shape=partialRectangle;collapsible=0;dropTarget=0;pointerEvents=0;fillColor=#FFFFFF;points=[[0,0.5],[1,0.5]];portConstraint=eastwest;top=0;left=0;right=0;bottom=0;" parent="FZp34ey01rAOAzYDmTqa-1" vertex="1">
          <mxGeometry y="180" width="250" height="30" as="geometry" />
        </mxCell>
        <mxCell id="FZp34ey01rAOAzYDmTqa-30" value="" style="shape=partialRectangle;overflow=hidden;connectable=0;fillColor=#FFFFFF;top=0;left=0;bottom=0;right=0;" parent="FZp34ey01rAOAzYDmTqa-29" vertex="1">
          <mxGeometry width="30" height="30" as="geometry">
            <mxRectangle width="30" height="30" as="alternateBounds" />
          </mxGeometry>
        </mxCell>
        <mxCell id="FZp34ey01rAOAzYDmTqa-31" value="updated_at [timestamp]" style="shape=partialRectangle;overflow=hidden;connectable=0;fillColor=#FFFFFF;top=0;left=0;bottom=0;right=0;align=left;spacingLeft=6;" parent="FZp34ey01rAOAzYDmTqa-29" vertex="1">
          <mxGeometry x="30" width="220" height="30" as="geometry">
            <mxRectangle width="220" height="30" as="alternateBounds" />
          </mxGeometry>
        </mxCell>
        <mxCell id="FZp34ey01rAOAzYDmTqa-35" value="" style="edgeStyle=entityRelationEdgeStyle;fontSize=12;html=1;endArrow=ERmandOne;startArrow=ERmandOne;rounded=0;exitX=1;exitY=0.5;exitDx=0;exitDy=0;entryX=0;entryY=0.5;entryDx=0;entryDy=0;fillColor=#FFFFFF;" parent="1" source="FZp34ey01rAOAzYDmTqa-2" target="FZp34ey01rAOAzYDmTqa-32" edge="1">
          <mxGeometry width="100" height="100" relative="1" as="geometry">
            <mxPoint x="-810" y="280" as="sourcePoint" />
            <mxPoint x="-710" y="180" as="targetPoint" />
          </mxGeometry>
        </mxCell>
        <mxCell id="xStQqFgwTeNVZgLSSUwS-1" value="Category" style="shape=table;startSize=30;container=1;collapsible=1;childLayout=tableLayout;fixedRows=1;rowLines=0;fontStyle=1;align=center;resizeLast=1;fillColor=#FFFFFF;" parent="1" vertex="1">
          <mxGeometry x="830" y="180" width="250" height="90.00000000000011" as="geometry" />
        </mxCell>
        <mxCell id="xStQqFgwTeNVZgLSSUwS-2" value="" style="shape=partialRectangle;collapsible=0;dropTarget=0;pointerEvents=0;fillColor=#FFFFFF;points=[[0,0.5],[1,0.5]];portConstraint=eastwest;top=0;left=0;right=0;bottom=1;" parent="xStQqFgwTeNVZgLSSUwS-1" vertex="1">
          <mxGeometry y="30" width="250" height="30" as="geometry" />
        </mxCell>
        <mxCell id="xStQqFgwTeNVZgLSSUwS-3" value="PK" style="shape=partialRectangle;overflow=hidden;connectable=0;fillColor=#FFFFFF;top=0;left=0;bottom=0;right=0;fontStyle=1;" parent="xStQqFgwTeNVZgLSSUwS-2" vertex="1">
          <mxGeometry width="30" height="30" as="geometry">
            <mxRectangle width="30" height="30" as="alternateBounds" />
          </mxGeometry>
        </mxCell>
        <mxCell id="xStQqFgwTeNVZgLSSUwS-4" value="category_id [bigint]" style="shape=partialRectangle;overflow=hidden;connectable=0;fillColor=#FFFFFF;top=0;left=0;bottom=0;right=0;align=left;spacingLeft=6;fontStyle=1;" parent="xStQqFgwTeNVZgLSSUwS-2" vertex="1">
          <mxGeometry x="30" width="220" height="30" as="geometry">
            <mxRectangle width="220" height="30" as="alternateBounds" />
          </mxGeometry>
        </mxCell>
        <mxCell id="xStQqFgwTeNVZgLSSUwS-5" value="" style="shape=partialRectangle;collapsible=0;dropTarget=0;pointerEvents=0;fillColor=#FFFFFF;points=[[0,0.5],[1,0.5]];portConstraint=eastwest;top=0;left=0;right=0;bottom=0;" parent="xStQqFgwTeNVZgLSSUwS-1" vertex="1">
          <mxGeometry y="60" width="250" height="30" as="geometry" />
        </mxCell>
        <mxCell id="xStQqFgwTeNVZgLSSUwS-6" value="" style="shape=partialRectangle;overflow=hidden;connectable=0;fillColor=#FFFFFF;top=0;left=0;bottom=0;right=0;" parent="xStQqFgwTeNVZgLSSUwS-5" vertex="1">
          <mxGeometry width="30" height="30" as="geometry">
            <mxRectangle width="30" height="30" as="alternateBounds" />
          </mxGeometry>
        </mxCell>
        <mxCell id="xStQqFgwTeNVZgLSSUwS-7" value="category_name [varchar(255)]" style="shape=partialRectangle;overflow=hidden;connectable=0;fillColor=#FFFFFF;top=0;left=0;bottom=0;right=0;align=left;spacingLeft=6;" parent="xStQqFgwTeNVZgLSSUwS-5" vertex="1">
          <mxGeometry x="30" width="220" height="30" as="geometry">
            <mxRectangle width="220" height="30" as="alternateBounds" />
          </mxGeometry>
        </mxCell>
        <mxCell id="xStQqFgwTeNVZgLSSUwS-14" value="Product_Category" style="shape=table;startSize=30;container=1;collapsible=1;childLayout=tableLayout;fixedRows=1;rowLines=0;fontStyle=1;align=center;resizeLast=1;fillColor=#FFFFFF;" parent="1" vertex="1">
          <mxGeometry x="520" y="180" width="250" height="120.00000000000011" as="geometry" />
        </mxCell>
        <mxCell id="xStQqFgwTeNVZgLSSUwS-15" value="" style="shape=partialRectangle;collapsible=0;dropTarget=0;pointerEvents=0;fillColor=#FFFFFF;points=[[0,0.5],[1,0.5]];portConstraint=eastwest;top=0;left=0;right=0;bottom=1;" parent="xStQqFgwTeNVZgLSSUwS-14" vertex="1">
          <mxGeometry y="30" width="250" height="30" as="geometry" />
        </mxCell>
        <mxCell id="xStQqFgwTeNVZgLSSUwS-16" value="" style="shape=partialRectangle;overflow=hidden;connectable=0;fillColor=#FFFFFF;top=0;left=0;bottom=0;right=0;fontStyle=1;" parent="xStQqFgwTeNVZgLSSUwS-15" vertex="1">
          <mxGeometry width="30" height="30" as="geometry">
            <mxRectangle width="30" height="30" as="alternateBounds" />
          </mxGeometry>
        </mxCell>
        <mxCell id="xStQqFgwTeNVZgLSSUwS-17" value="" style="shape=partialRectangle;overflow=hidden;connectable=0;fillColor=#FFFFFF;top=0;left=0;bottom=0;right=0;align=left;spacingLeft=6;fontStyle=1;" parent="xStQqFgwTeNVZgLSSUwS-15" vertex="1">
          <mxGeometry x="30" width="220" height="30" as="geometry">
            <mxRectangle width="220" height="30" as="alternateBounds" />
          </mxGeometry>
        </mxCell>
        <mxCell id="xStQqFgwTeNVZgLSSUwS-18" value="" style="shape=partialRectangle;collapsible=0;dropTarget=0;pointerEvents=0;fillColor=#FFFFFF;points=[[0,0.5],[1,0.5]];portConstraint=eastwest;top=0;left=0;right=0;bottom=0;" parent="xStQqFgwTeNVZgLSSUwS-14" vertex="1">
          <mxGeometry y="60" width="250" height="30" as="geometry" />
        </mxCell>
        <mxCell id="xStQqFgwTeNVZgLSSUwS-19" value="FK" style="shape=partialRectangle;overflow=hidden;connectable=0;fillColor=#FFFFFF;top=0;left=0;bottom=0;right=0;" parent="xStQqFgwTeNVZgLSSUwS-18" vertex="1">
          <mxGeometry width="30" height="30" as="geometry">
            <mxRectangle width="30" height="30" as="alternateBounds" />
          </mxGeometry>
        </mxCell>
        <mxCell id="xStQqFgwTeNVZgLSSUwS-20" value="product_id [bigint]" style="shape=partialRectangle;overflow=hidden;connectable=0;fillColor=#FFFFFF;top=0;left=0;bottom=0;right=0;align=left;spacingLeft=6;" parent="xStQqFgwTeNVZgLSSUwS-18" vertex="1">
          <mxGeometry x="30" width="220" height="30" as="geometry">
            <mxRectangle width="220" height="30" as="alternateBounds" />
          </mxGeometry>
        </mxCell>
        <mxCell id="xStQqFgwTeNVZgLSSUwS-21" value="" style="shape=partialRectangle;collapsible=0;dropTarget=0;pointerEvents=0;fillColor=#FFFFFF;points=[[0,0.5],[1,0.5]];portConstraint=eastwest;top=0;left=0;right=0;bottom=0;" parent="xStQqFgwTeNVZgLSSUwS-14" vertex="1">
          <mxGeometry y="90" width="250" height="30" as="geometry" />
        </mxCell>
        <mxCell id="xStQqFgwTeNVZgLSSUwS-22" value="FK" style="shape=partialRectangle;overflow=hidden;connectable=0;fillColor=#FFFFFF;top=0;left=0;bottom=0;right=0;" parent="xStQqFgwTeNVZgLSSUwS-21" vertex="1">
          <mxGeometry width="30" height="30" as="geometry">
            <mxRectangle width="30" height="30" as="alternateBounds" />
          </mxGeometry>
        </mxCell>
        <mxCell id="xStQqFgwTeNVZgLSSUwS-23" value="category_id [bigint]" style="shape=partialRectangle;overflow=hidden;connectable=0;fillColor=#FFFFFF;top=0;left=0;bottom=0;right=0;align=left;spacingLeft=6;" parent="xStQqFgwTeNVZgLSSUwS-21" vertex="1">
          <mxGeometry x="30" width="220" height="30" as="geometry">
            <mxRectangle width="220" height="30" as="alternateBounds" />
          </mxGeometry>
        </mxCell>
        <mxCell id="xStQqFgwTeNVZgLSSUwS-27" value="" style="edgeStyle=entityRelationEdgeStyle;fontSize=12;html=1;endArrow=ERmany;startArrow=ERmany;rounded=0;entryX=0;entryY=0.5;entryDx=0;entryDy=0;fillColor=#FFFFFF;" parent="1" source="57J9HGHEWiLVGIEVYI9T-224" target="xStQqFgwTeNVZgLSSUwS-18" edge="1">
          <mxGeometry width="100" height="100" relative="1" as="geometry">
            <mxPoint x="270" y="90" as="sourcePoint" />
            <mxPoint x="370" y="-10" as="targetPoint" />
          </mxGeometry>
        </mxCell>
        <mxCell id="xStQqFgwTeNVZgLSSUwS-28" value="" style="edgeStyle=entityRelationEdgeStyle;fontSize=12;html=1;endArrow=ERmany;startArrow=ERmany;rounded=0;entryX=0;entryY=0.5;entryDx=0;entryDy=0;exitX=1;exitY=0.5;exitDx=0;exitDy=0;fillColor=#FFFFFF;" parent="1" source="xStQqFgwTeNVZgLSSUwS-21" target="xStQqFgwTeNVZgLSSUwS-2" edge="1">
          <mxGeometry width="100" height="100" relative="1" as="geometry">
            <mxPoint x="490" y="115" as="sourcePoint" />
            <mxPoint x="550" y="145" as="targetPoint" />
          </mxGeometry>
        </mxCell>
        <mxCell id="axUUv2KypCi063YYUATD-7" value="Review" style="shape=table;startSize=30;container=1;collapsible=1;childLayout=tableLayout;fixedRows=1;rowLines=0;fontStyle=1;align=center;resizeLast=1;fillColor=#FFFFFF;" parent="1" vertex="1">
          <mxGeometry x="-450" y="630" width="250" height="240.0000000000001" as="geometry" />
        </mxCell>
        <mxCell id="axUUv2KypCi063YYUATD-8" value="" style="shape=partialRectangle;collapsible=0;dropTarget=0;pointerEvents=0;fillColor=#FFFFFF;points=[[0,0.5],[1,0.5]];portConstraint=eastwest;top=0;left=0;right=0;bottom=1;" parent="axUUv2KypCi063YYUATD-7" vertex="1">
          <mxGeometry y="30" width="250" height="30" as="geometry" />
        </mxCell>
        <mxCell id="axUUv2KypCi063YYUATD-9" value="" style="shape=partialRectangle;overflow=hidden;connectable=0;fillColor=#FFFFFF;top=0;left=0;bottom=0;right=0;fontStyle=1;" parent="axUUv2KypCi063YYUATD-8" vertex="1">
          <mxGeometry width="30" height="30" as="geometry">
            <mxRectangle width="30" height="30" as="alternateBounds" />
          </mxGeometry>
        </mxCell>
        <mxCell id="axUUv2KypCi063YYUATD-10" value="review_id [bigint]" style="shape=partialRectangle;overflow=hidden;connectable=0;fillColor=#FFFFFF;top=0;left=0;bottom=0;right=0;align=left;spacingLeft=6;fontStyle=1;" parent="axUUv2KypCi063YYUATD-8" vertex="1">
          <mxGeometry x="30" width="220" height="30" as="geometry">
            <mxRectangle width="220" height="30" as="alternateBounds" />
          </mxGeometry>
        </mxCell>
        <mxCell id="axUUv2KypCi063YYUATD-11" value="" style="shape=partialRectangle;collapsible=0;dropTarget=0;pointerEvents=0;fillColor=#FFFFFF;points=[[0,0.5],[1,0.5]];portConstraint=eastwest;top=0;left=0;right=0;bottom=0;" parent="axUUv2KypCi063YYUATD-7" vertex="1">
          <mxGeometry y="60" width="250" height="30" as="geometry" />
        </mxCell>
        <mxCell id="axUUv2KypCi063YYUATD-12" value="FK" style="shape=partialRectangle;overflow=hidden;connectable=0;fillColor=#FFFFFF;top=0;left=0;bottom=0;right=0;" parent="axUUv2KypCi063YYUATD-11" vertex="1">
          <mxGeometry width="30" height="30" as="geometry">
            <mxRectangle width="30" height="30" as="alternateBounds" />
          </mxGeometry>
        </mxCell>
        <mxCell id="axUUv2KypCi063YYUATD-13" value="product_id [bigint]" style="shape=partialRectangle;overflow=hidden;connectable=0;fillColor=#FFFFFF;top=0;left=0;bottom=0;right=0;align=left;spacingLeft=6;" parent="axUUv2KypCi063YYUATD-11" vertex="1">
          <mxGeometry x="30" width="220" height="30" as="geometry">
            <mxRectangle width="220" height="30" as="alternateBounds" />
          </mxGeometry>
        </mxCell>
        <mxCell id="axUUv2KypCi063YYUATD-14" value="" style="shape=partialRectangle;collapsible=0;dropTarget=0;pointerEvents=0;fillColor=#FFFFFF;points=[[0,0.5],[1,0.5]];portConstraint=eastwest;top=0;left=0;right=0;bottom=0;" parent="axUUv2KypCi063YYUATD-7" vertex="1">
          <mxGeometry y="90" width="250" height="30" as="geometry" />
        </mxCell>
        <mxCell id="axUUv2KypCi063YYUATD-15" value="FK" style="shape=partialRectangle;overflow=hidden;connectable=0;fillColor=#FFFFFF;top=0;left=0;bottom=0;right=0;" parent="axUUv2KypCi063YYUATD-14" vertex="1">
          <mxGeometry width="30" height="30" as="geometry">
            <mxRectangle width="30" height="30" as="alternateBounds" />
          </mxGeometry>
        </mxCell>
        <mxCell id="axUUv2KypCi063YYUATD-16" value="user_id [bigint]" style="shape=partialRectangle;overflow=hidden;connectable=0;fillColor=#FFFFFF;top=0;left=0;bottom=0;right=0;align=left;spacingLeft=6;" parent="axUUv2KypCi063YYUATD-14" vertex="1">
          <mxGeometry x="30" width="220" height="30" as="geometry">
            <mxRectangle width="220" height="30" as="alternateBounds" />
          </mxGeometry>
        </mxCell>
        <mxCell id="axUUv2KypCi063YYUATD-17" value="" style="shape=partialRectangle;collapsible=0;dropTarget=0;pointerEvents=0;fillColor=#FFFFFF;points=[[0,0.5],[1,0.5]];portConstraint=eastwest;top=0;left=0;right=0;bottom=0;" parent="axUUv2KypCi063YYUATD-7" vertex="1">
          <mxGeometry y="120" width="250" height="30" as="geometry" />
        </mxCell>
        <mxCell id="axUUv2KypCi063YYUATD-18" value="" style="shape=partialRectangle;overflow=hidden;connectable=0;fillColor=#FFFFFF;top=0;left=0;bottom=0;right=0;" parent="axUUv2KypCi063YYUATD-17" vertex="1">
          <mxGeometry width="30" height="30" as="geometry">
            <mxRectangle width="30" height="30" as="alternateBounds" />
          </mxGeometry>
        </mxCell>
        <mxCell id="axUUv2KypCi063YYUATD-19" value="review_text [varchar(255)]" style="shape=partialRectangle;overflow=hidden;connectable=0;fillColor=#FFFFFF;top=0;left=0;bottom=0;right=0;align=left;spacingLeft=6;" parent="axUUv2KypCi063YYUATD-17" vertex="1">
          <mxGeometry x="30" width="220" height="30" as="geometry">
            <mxRectangle width="220" height="30" as="alternateBounds" />
          </mxGeometry>
        </mxCell>
        <mxCell id="axUUv2KypCi063YYUATD-33" style="shape=partialRectangle;collapsible=0;dropTarget=0;pointerEvents=0;fillColor=#FFFFFF;points=[[0,0.5],[1,0.5]];portConstraint=eastwest;top=0;left=0;right=0;bottom=0;" parent="axUUv2KypCi063YYUATD-7" vertex="1">
          <mxGeometry y="150" width="250" height="30" as="geometry" />
        </mxCell>
        <mxCell id="axUUv2KypCi063YYUATD-34" style="shape=partialRectangle;overflow=hidden;connectable=0;fillColor=#FFFFFF;top=0;left=0;bottom=0;right=0;" parent="axUUv2KypCi063YYUATD-33" vertex="1">
          <mxGeometry width="30" height="30" as="geometry">
            <mxRectangle width="30" height="30" as="alternateBounds" />
          </mxGeometry>
        </mxCell>
        <mxCell id="axUUv2KypCi063YYUATD-35" value="review_rating [integer(1)]" style="shape=partialRectangle;overflow=hidden;connectable=0;fillColor=#FFFFFF;top=0;left=0;bottom=0;right=0;align=left;spacingLeft=6;" parent="axUUv2KypCi063YYUATD-33" vertex="1">
          <mxGeometry x="30" width="220" height="30" as="geometry">
            <mxRectangle width="220" height="30" as="alternateBounds" />
          </mxGeometry>
        </mxCell>
        <mxCell id="axUUv2KypCi063YYUATD-36" style="shape=partialRectangle;collapsible=0;dropTarget=0;pointerEvents=0;fillColor=#FFFFFF;points=[[0,0.5],[1,0.5]];portConstraint=eastwest;top=0;left=0;right=0;bottom=0;" parent="axUUv2KypCi063YYUATD-7" vertex="1">
          <mxGeometry y="180" width="250" height="30" as="geometry" />
        </mxCell>
        <mxCell id="axUUv2KypCi063YYUATD-37" style="shape=partialRectangle;overflow=hidden;connectable=0;fillColor=#FFFFFF;top=0;left=0;bottom=0;right=0;" parent="axUUv2KypCi063YYUATD-36" vertex="1">
          <mxGeometry width="30" height="30" as="geometry">
            <mxRectangle width="30" height="30" as="alternateBounds" />
          </mxGeometry>
        </mxCell>
        <mxCell id="axUUv2KypCi063YYUATD-38" value="created_at [timestamp]" style="shape=partialRectangle;overflow=hidden;connectable=0;fillColor=#FFFFFF;top=0;left=0;bottom=0;right=0;align=left;spacingLeft=6;" parent="axUUv2KypCi063YYUATD-36" vertex="1">
          <mxGeometry x="30" width="220" height="30" as="geometry">
            <mxRectangle width="220" height="30" as="alternateBounds" />
          </mxGeometry>
        </mxCell>
        <mxCell id="axUUv2KypCi063YYUATD-39" style="shape=partialRectangle;collapsible=0;dropTarget=0;pointerEvents=0;fillColor=#FFFFFF;points=[[0,0.5],[1,0.5]];portConstraint=eastwest;top=0;left=0;right=0;bottom=0;" parent="axUUv2KypCi063YYUATD-7" vertex="1">
          <mxGeometry y="210" width="250" height="30" as="geometry" />
        </mxCell>
        <mxCell id="axUUv2KypCi063YYUATD-40" style="shape=partialRectangle;overflow=hidden;connectable=0;fillColor=#FFFFFF;top=0;left=0;bottom=0;right=0;" parent="axUUv2KypCi063YYUATD-39" vertex="1">
          <mxGeometry width="30" height="30" as="geometry">
            <mxRectangle width="30" height="30" as="alternateBounds" />
          </mxGeometry>
        </mxCell>
        <mxCell id="axUUv2KypCi063YYUATD-41" value="updated_at [timestamp]" style="shape=partialRectangle;overflow=hidden;connectable=0;fillColor=#FFFFFF;top=0;left=0;bottom=0;right=0;align=left;spacingLeft=6;" parent="axUUv2KypCi063YYUATD-39" vertex="1">
          <mxGeometry x="30" width="220" height="30" as="geometry">
            <mxRectangle width="220" height="30" as="alternateBounds" />
          </mxGeometry>
        </mxCell>
        <mxCell id="axUUv2KypCi063YYUATD-48" value="Brand" style="shape=table;startSize=30;container=1;collapsible=1;childLayout=tableLayout;fixedRows=1;rowLines=0;fontStyle=1;align=center;resizeLast=1;fillColor=#FFFFFF;" parent="1" vertex="1">
          <mxGeometry x="520" y="342" width="250" height="120.00000000000011" as="geometry" />
        </mxCell>
        <mxCell id="axUUv2KypCi063YYUATD-49" value="" style="shape=partialRectangle;collapsible=0;dropTarget=0;pointerEvents=0;fillColor=#FFFFFF;points=[[0,0.5],[1,0.5]];portConstraint=eastwest;top=0;left=0;right=0;bottom=1;" parent="axUUv2KypCi063YYUATD-48" vertex="1">
          <mxGeometry y="30" width="250" height="30" as="geometry" />
        </mxCell>
        <mxCell id="axUUv2KypCi063YYUATD-50" value="PK" style="shape=partialRectangle;overflow=hidden;connectable=0;fillColor=#FFFFFF;top=0;left=0;bottom=0;right=0;fontStyle=1;" parent="axUUv2KypCi063YYUATD-49" vertex="1">
          <mxGeometry width="30" height="30" as="geometry">
            <mxRectangle width="30" height="30" as="alternateBounds" />
          </mxGeometry>
        </mxCell>
        <mxCell id="axUUv2KypCi063YYUATD-51" value="brand_id [bigint]" style="shape=partialRectangle;overflow=hidden;connectable=0;fillColor=#FFFFFF;top=0;left=0;bottom=0;right=0;align=left;spacingLeft=6;fontStyle=1;" parent="axUUv2KypCi063YYUATD-49" vertex="1">
          <mxGeometry x="30" width="220" height="30" as="geometry">
            <mxRectangle width="220" height="30" as="alternateBounds" />
          </mxGeometry>
        </mxCell>
        <mxCell id="axUUv2KypCi063YYUATD-52" value="" style="shape=partialRectangle;collapsible=0;dropTarget=0;pointerEvents=0;fillColor=#FFFFFF;points=[[0,0.5],[1,0.5]];portConstraint=eastwest;top=0;left=0;right=0;bottom=0;" parent="axUUv2KypCi063YYUATD-48" vertex="1">
          <mxGeometry y="60" width="250" height="30" as="geometry" />
        </mxCell>
        <mxCell id="axUUv2KypCi063YYUATD-53" value="" style="shape=partialRectangle;overflow=hidden;connectable=0;fillColor=#FFFFFF;top=0;left=0;bottom=0;right=0;" parent="axUUv2KypCi063YYUATD-52" vertex="1">
          <mxGeometry width="30" height="30" as="geometry">
            <mxRectangle width="30" height="30" as="alternateBounds" />
          </mxGeometry>
        </mxCell>
        <mxCell id="axUUv2KypCi063YYUATD-54" value="brand_name [varchar(255)] " style="shape=partialRectangle;overflow=hidden;connectable=0;fillColor=#FFFFFF;top=0;left=0;bottom=0;right=0;align=left;spacingLeft=6;" parent="axUUv2KypCi063YYUATD-52" vertex="1">
          <mxGeometry x="30" width="220" height="30" as="geometry">
            <mxRectangle width="220" height="30" as="alternateBounds" />
          </mxGeometry>
        </mxCell>
        <mxCell id="axUUv2KypCi063YYUATD-55" style="shape=partialRectangle;collapsible=0;dropTarget=0;pointerEvents=0;fillColor=#FFFFFF;points=[[0,0.5],[1,0.5]];portConstraint=eastwest;top=0;left=0;right=0;bottom=0;" parent="axUUv2KypCi063YYUATD-48" vertex="1">
          <mxGeometry y="90" width="250" height="30" as="geometry" />
        </mxCell>
        <mxCell id="axUUv2KypCi063YYUATD-56" style="shape=partialRectangle;overflow=hidden;connectable=0;fillColor=#FFFFFF;top=0;left=0;bottom=0;right=0;" parent="axUUv2KypCi063YYUATD-55" vertex="1">
          <mxGeometry width="30" height="30" as="geometry">
            <mxRectangle width="30" height="30" as="alternateBounds" />
          </mxGeometry>
        </mxCell>
        <mxCell id="axUUv2KypCi063YYUATD-57" value="brand_country [varchar(255)]" style="shape=partialRectangle;overflow=hidden;connectable=0;fillColor=#FFFFFF;top=0;left=0;bottom=0;right=0;align=left;spacingLeft=6;" parent="axUUv2KypCi063YYUATD-55" vertex="1">
          <mxGeometry x="30" width="220" height="30" as="geometry">
            <mxRectangle width="220" height="30" as="alternateBounds" />
          </mxGeometry>
        </mxCell>
        <mxCell id="axUUv2KypCi063YYUATD-58" value="Cart" style="shape=table;startSize=30;container=1;collapsible=1;childLayout=tableLayout;fixedRows=1;rowLines=0;fontStyle=1;align=center;resizeLast=1;fillColor=#FFFFFF;" parent="1" vertex="1">
          <mxGeometry x="-450" y="40" width="250" height="150.0000000000001" as="geometry" />
        </mxCell>
        <mxCell id="axUUv2KypCi063YYUATD-59" value="" style="shape=partialRectangle;collapsible=0;dropTarget=0;pointerEvents=0;fillColor=#FFFFFF;points=[[0,0.5],[1,0.5]];portConstraint=eastwest;top=0;left=0;right=0;bottom=1;" parent="axUUv2KypCi063YYUATD-58" vertex="1">
          <mxGeometry y="30" width="250" height="30" as="geometry" />
        </mxCell>
        <mxCell id="axUUv2KypCi063YYUATD-60" value="PK" style="shape=partialRectangle;overflow=hidden;connectable=0;fillColor=#FFFFFF;top=0;left=0;bottom=0;right=0;fontStyle=1;" parent="axUUv2KypCi063YYUATD-59" vertex="1">
          <mxGeometry width="30" height="30" as="geometry">
            <mxRectangle width="30" height="30" as="alternateBounds" />
          </mxGeometry>
        </mxCell>
        <mxCell id="axUUv2KypCi063YYUATD-61" value="cart_id [bigint]" style="shape=partialRectangle;overflow=hidden;connectable=0;fillColor=#FFFFFF;top=0;left=0;bottom=0;right=0;align=left;spacingLeft=6;fontStyle=1;" parent="axUUv2KypCi063YYUATD-59" vertex="1">
          <mxGeometry x="30" width="220" height="30" as="geometry">
            <mxRectangle width="220" height="30" as="alternateBounds" />
          </mxGeometry>
        </mxCell>
        <mxCell id="axUUv2KypCi063YYUATD-62" value="" style="shape=partialRectangle;collapsible=0;dropTarget=0;pointerEvents=0;fillColor=#FFFFFF;points=[[0,0.5],[1,0.5]];portConstraint=eastwest;top=0;left=0;right=0;bottom=0;" parent="axUUv2KypCi063YYUATD-58" vertex="1">
          <mxGeometry y="60" width="250" height="30" as="geometry" />
        </mxCell>
        <mxCell id="axUUv2KypCi063YYUATD-63" value="FK" style="shape=partialRectangle;overflow=hidden;connectable=0;fillColor=#FFFFFF;top=0;left=0;bottom=0;right=0;" parent="axUUv2KypCi063YYUATD-62" vertex="1">
          <mxGeometry width="30" height="30" as="geometry">
            <mxRectangle width="30" height="30" as="alternateBounds" />
          </mxGeometry>
        </mxCell>
        <mxCell id="axUUv2KypCi063YYUATD-64" value="user_id [bigint]" style="shape=partialRectangle;overflow=hidden;connectable=0;fillColor=#FFFFFF;top=0;left=0;bottom=0;right=0;align=left;spacingLeft=6;" parent="axUUv2KypCi063YYUATD-62" vertex="1">
          <mxGeometry x="30" width="220" height="30" as="geometry">
            <mxRectangle width="220" height="30" as="alternateBounds" />
          </mxGeometry>
        </mxCell>
        <mxCell id="axUUv2KypCi063YYUATD-65" style="shape=partialRectangle;collapsible=0;dropTarget=0;pointerEvents=0;fillColor=#FFFFFF;points=[[0,0.5],[1,0.5]];portConstraint=eastwest;top=0;left=0;right=0;bottom=0;" parent="axUUv2KypCi063YYUATD-58" vertex="1">
          <mxGeometry y="90" width="250" height="30" as="geometry" />
        </mxCell>
        <mxCell id="axUUv2KypCi063YYUATD-66" style="shape=partialRectangle;overflow=hidden;connectable=0;fillColor=#FFFFFF;top=0;left=0;bottom=0;right=0;" parent="axUUv2KypCi063YYUATD-65" vertex="1">
          <mxGeometry width="30" height="30" as="geometry">
            <mxRectangle width="30" height="30" as="alternateBounds" />
          </mxGeometry>
        </mxCell>
        <mxCell id="axUUv2KypCi063YYUATD-67" value="created_at [timestamp]" style="shape=partialRectangle;overflow=hidden;connectable=0;fillColor=#FFFFFF;top=0;left=0;bottom=0;right=0;align=left;spacingLeft=6;" parent="axUUv2KypCi063YYUATD-65" vertex="1">
          <mxGeometry x="30" width="220" height="30" as="geometry">
            <mxRectangle width="220" height="30" as="alternateBounds" />
          </mxGeometry>
        </mxCell>
        <mxCell id="h3JEGPcKmmR4Bn5Vx9Nj-112" style="shape=partialRectangle;collapsible=0;dropTarget=0;pointerEvents=0;fillColor=#FFFFFF;points=[[0,0.5],[1,0.5]];portConstraint=eastwest;top=0;left=0;right=0;bottom=0;" vertex="1" parent="axUUv2KypCi063YYUATD-58">
          <mxGeometry y="120" width="250" height="30" as="geometry" />
        </mxCell>
        <mxCell id="h3JEGPcKmmR4Bn5Vx9Nj-113" style="shape=partialRectangle;overflow=hidden;connectable=0;fillColor=#FFFFFF;top=0;left=0;bottom=0;right=0;" vertex="1" parent="h3JEGPcKmmR4Bn5Vx9Nj-112">
          <mxGeometry width="30" height="30" as="geometry">
            <mxRectangle width="30" height="30" as="alternateBounds" />
          </mxGeometry>
        </mxCell>
        <mxCell id="h3JEGPcKmmR4Bn5Vx9Nj-114" value="updated_at [timestamp]" style="shape=partialRectangle;overflow=hidden;connectable=0;fillColor=#FFFFFF;top=0;left=0;bottom=0;right=0;align=left;spacingLeft=6;" vertex="1" parent="h3JEGPcKmmR4Bn5Vx9Nj-112">
          <mxGeometry x="30" width="220" height="30" as="geometry">
            <mxRectangle width="220" height="30" as="alternateBounds" />
          </mxGeometry>
        </mxCell>
        <mxCell id="axUUv2KypCi063YYUATD-71" value="Order" style="shape=table;startSize=30;container=1;collapsible=1;childLayout=tableLayout;fixedRows=1;rowLines=0;fontStyle=1;align=center;resizeLast=1;fillColor=#FFFFFF;" parent="1" vertex="1">
          <mxGeometry x="-450" y="240" width="250" height="240.0000000000001" as="geometry" />
        </mxCell>
        <mxCell id="axUUv2KypCi063YYUATD-72" value="" style="shape=partialRectangle;collapsible=0;dropTarget=0;pointerEvents=0;fillColor=#FFFFFF;points=[[0,0.5],[1,0.5]];portConstraint=eastwest;top=0;left=0;right=0;bottom=1;" parent="axUUv2KypCi063YYUATD-71" vertex="1">
          <mxGeometry y="30" width="250" height="30" as="geometry" />
        </mxCell>
        <mxCell id="axUUv2KypCi063YYUATD-73" value="PK" style="shape=partialRectangle;overflow=hidden;connectable=0;fillColor=#FFFFFF;top=0;left=0;bottom=0;right=0;fontStyle=1;" parent="axUUv2KypCi063YYUATD-72" vertex="1">
          <mxGeometry width="30" height="30" as="geometry">
            <mxRectangle width="30" height="30" as="alternateBounds" />
          </mxGeometry>
        </mxCell>
        <mxCell id="axUUv2KypCi063YYUATD-74" value="order_id [bigint]" style="shape=partialRectangle;overflow=hidden;connectable=0;fillColor=#FFFFFF;top=0;left=0;bottom=0;right=0;align=left;spacingLeft=6;fontStyle=1;" parent="axUUv2KypCi063YYUATD-72" vertex="1">
          <mxGeometry x="30" width="220" height="30" as="geometry">
            <mxRectangle width="220" height="30" as="alternateBounds" />
          </mxGeometry>
        </mxCell>
        <mxCell id="axUUv2KypCi063YYUATD-75" value="" style="shape=partialRectangle;collapsible=0;dropTarget=0;pointerEvents=0;fillColor=#FFFFFF;points=[[0,0.5],[1,0.5]];portConstraint=eastwest;top=0;left=0;right=0;bottom=0;" parent="axUUv2KypCi063YYUATD-71" vertex="1">
          <mxGeometry y="60" width="250" height="30" as="geometry" />
        </mxCell>
        <mxCell id="axUUv2KypCi063YYUATD-76" value="FK" style="shape=partialRectangle;overflow=hidden;connectable=0;fillColor=#FFFFFF;top=0;left=0;bottom=0;right=0;" parent="axUUv2KypCi063YYUATD-75" vertex="1">
          <mxGeometry width="30" height="30" as="geometry">
            <mxRectangle width="30" height="30" as="alternateBounds" />
          </mxGeometry>
        </mxCell>
        <mxCell id="axUUv2KypCi063YYUATD-77" value="user_id [bigint]" style="shape=partialRectangle;overflow=hidden;connectable=0;fillColor=#FFFFFF;top=0;left=0;bottom=0;right=0;align=left;spacingLeft=6;" parent="axUUv2KypCi063YYUATD-75" vertex="1">
          <mxGeometry x="30" width="220" height="30" as="geometry">
            <mxRectangle width="220" height="30" as="alternateBounds" />
          </mxGeometry>
        </mxCell>
        <mxCell id="axUUv2KypCi063YYUATD-78" style="shape=partialRectangle;collapsible=0;dropTarget=0;pointerEvents=0;fillColor=#FFFFFF;points=[[0,0.5],[1,0.5]];portConstraint=eastwest;top=0;left=0;right=0;bottom=0;" parent="axUUv2KypCi063YYUATD-71" vertex="1">
          <mxGeometry y="90" width="250" height="30" as="geometry" />
        </mxCell>
        <mxCell id="axUUv2KypCi063YYUATD-79" style="shape=partialRectangle;overflow=hidden;connectable=0;fillColor=#FFFFFF;top=0;left=0;bottom=0;right=0;" parent="axUUv2KypCi063YYUATD-78" vertex="1">
          <mxGeometry width="30" height="30" as="geometry">
            <mxRectangle width="30" height="30" as="alternateBounds" />
          </mxGeometry>
        </mxCell>
        <mxCell id="axUUv2KypCi063YYUATD-80" value="order_date [date]" style="shape=partialRectangle;overflow=hidden;connectable=0;fillColor=#FFFFFF;top=0;left=0;bottom=0;right=0;align=left;spacingLeft=6;" parent="axUUv2KypCi063YYUATD-78" vertex="1">
          <mxGeometry x="30" width="220" height="30" as="geometry">
            <mxRectangle width="220" height="30" as="alternateBounds" />
          </mxGeometry>
        </mxCell>
        <mxCell id="axUUv2KypCi063YYUATD-84" style="shape=partialRectangle;collapsible=0;dropTarget=0;pointerEvents=0;fillColor=#FFFFFF;points=[[0,0.5],[1,0.5]];portConstraint=eastwest;top=0;left=0;right=0;bottom=0;" parent="axUUv2KypCi063YYUATD-71" vertex="1">
          <mxGeometry y="120" width="250" height="30" as="geometry" />
        </mxCell>
        <mxCell id="axUUv2KypCi063YYUATD-85" style="shape=partialRectangle;overflow=hidden;connectable=0;fillColor=#FFFFFF;top=0;left=0;bottom=0;right=0;" parent="axUUv2KypCi063YYUATD-84" vertex="1">
          <mxGeometry width="30" height="30" as="geometry">
            <mxRectangle width="30" height="30" as="alternateBounds" />
          </mxGeometry>
        </mxCell>
        <mxCell id="axUUv2KypCi063YYUATD-86" value="total_amount [decimal (10,20)]" style="shape=partialRectangle;overflow=hidden;connectable=0;fillColor=#FFFFFF;top=0;left=0;bottom=0;right=0;align=left;spacingLeft=6;" parent="axUUv2KypCi063YYUATD-84" vertex="1">
          <mxGeometry x="30" width="220" height="30" as="geometry">
            <mxRectangle width="220" height="30" as="alternateBounds" />
          </mxGeometry>
        </mxCell>
        <mxCell id="h3JEGPcKmmR4Bn5Vx9Nj-26" style="shape=partialRectangle;collapsible=0;dropTarget=0;pointerEvents=0;fillColor=#FFFFFF;points=[[0,0.5],[1,0.5]];portConstraint=eastwest;top=0;left=0;right=0;bottom=0;" vertex="1" parent="axUUv2KypCi063YYUATD-71">
          <mxGeometry y="150" width="250" height="30" as="geometry" />
        </mxCell>
        <mxCell id="h3JEGPcKmmR4Bn5Vx9Nj-27" style="shape=partialRectangle;overflow=hidden;connectable=0;fillColor=#FFFFFF;top=0;left=0;bottom=0;right=0;" vertex="1" parent="h3JEGPcKmmR4Bn5Vx9Nj-26">
          <mxGeometry width="30" height="30" as="geometry">
            <mxRectangle width="30" height="30" as="alternateBounds" />
          </mxGeometry>
        </mxCell>
        <mxCell id="h3JEGPcKmmR4Bn5Vx9Nj-28" value="status_id [bigint]" style="shape=partialRectangle;overflow=hidden;connectable=0;fillColor=#FFFFFF;top=0;left=0;bottom=0;right=0;align=left;spacingLeft=6;" vertex="1" parent="h3JEGPcKmmR4Bn5Vx9Nj-26">
          <mxGeometry x="30" width="220" height="30" as="geometry">
            <mxRectangle width="220" height="30" as="alternateBounds" />
          </mxGeometry>
        </mxCell>
        <mxCell id="h3JEGPcKmmR4Bn5Vx9Nj-23" style="shape=partialRectangle;collapsible=0;dropTarget=0;pointerEvents=0;fillColor=#FFFFFF;points=[[0,0.5],[1,0.5]];portConstraint=eastwest;top=0;left=0;right=0;bottom=0;" vertex="1" parent="axUUv2KypCi063YYUATD-71">
          <mxGeometry y="180" width="250" height="30" as="geometry" />
        </mxCell>
        <mxCell id="h3JEGPcKmmR4Bn5Vx9Nj-24" style="shape=partialRectangle;overflow=hidden;connectable=0;fillColor=#FFFFFF;top=0;left=0;bottom=0;right=0;" vertex="1" parent="h3JEGPcKmmR4Bn5Vx9Nj-23">
          <mxGeometry width="30" height="30" as="geometry">
            <mxRectangle width="30" height="30" as="alternateBounds" />
          </mxGeometry>
        </mxCell>
        <mxCell id="h3JEGPcKmmR4Bn5Vx9Nj-25" value="created_at [timestamp]" style="shape=partialRectangle;overflow=hidden;connectable=0;fillColor=#FFFFFF;top=0;left=0;bottom=0;right=0;align=left;spacingLeft=6;" vertex="1" parent="h3JEGPcKmmR4Bn5Vx9Nj-23">
          <mxGeometry x="30" width="220" height="30" as="geometry">
            <mxRectangle width="220" height="30" as="alternateBounds" />
          </mxGeometry>
        </mxCell>
        <mxCell id="axUUv2KypCi063YYUATD-81" style="shape=partialRectangle;collapsible=0;dropTarget=0;pointerEvents=0;fillColor=#FFFFFF;points=[[0,0.5],[1,0.5]];portConstraint=eastwest;top=0;left=0;right=0;bottom=0;" parent="axUUv2KypCi063YYUATD-71" vertex="1">
          <mxGeometry y="210" width="250" height="30" as="geometry" />
        </mxCell>
        <mxCell id="axUUv2KypCi063YYUATD-82" style="shape=partialRectangle;overflow=hidden;connectable=0;fillColor=#FFFFFF;top=0;left=0;bottom=0;right=0;" parent="axUUv2KypCi063YYUATD-81" vertex="1">
          <mxGeometry width="30" height="30" as="geometry">
            <mxRectangle width="30" height="30" as="alternateBounds" />
          </mxGeometry>
        </mxCell>
        <mxCell id="axUUv2KypCi063YYUATD-83" value="updated_at [timestamp]" style="shape=partialRectangle;overflow=hidden;connectable=0;fillColor=#FFFFFF;top=0;left=0;bottom=0;right=0;align=left;spacingLeft=6;" parent="axUUv2KypCi063YYUATD-81" vertex="1">
          <mxGeometry x="30" width="220" height="30" as="geometry">
            <mxRectangle width="220" height="30" as="alternateBounds" />
          </mxGeometry>
        </mxCell>
        <mxCell id="axUUv2KypCi063YYUATD-87" value="" style="edgeStyle=entityRelationEdgeStyle;fontSize=12;html=1;endArrow=ERmany;startArrow=ERmany;rounded=0;entryX=0;entryY=0.5;entryDx=0;entryDy=0;exitX=1;exitY=0.5;exitDx=0;exitDy=0;fillColor=#FFFFFF;" parent="1" source="57J9HGHEWiLVGIEVYI9T-230" target="axUUv2KypCi063YYUATD-49" edge="1">
          <mxGeometry width="100" height="100" relative="1" as="geometry">
            <mxPoint x="260" y="95" as="sourcePoint" />
            <mxPoint x="320" y="125" as="targetPoint" />
          </mxGeometry>
        </mxCell>
        <mxCell id="qmsK7Z5fBnWG_y2nSU_A-7" value="" style="edgeStyle=entityRelationEdgeStyle;fontSize=12;html=1;endArrow=ERmandOne;startArrow=ERmandOne;rounded=0;entryX=0;entryY=0.5;entryDx=0;entryDy=0;" parent="1" source="FZp34ey01rAOAzYDmTqa-32" target="axUUv2KypCi063YYUATD-62" edge="1">
          <mxGeometry width="100" height="100" relative="1" as="geometry">
            <mxPoint x="-500" y="110" as="sourcePoint" />
            <mxPoint x="-400" y="10" as="targetPoint" />
          </mxGeometry>
        </mxCell>
        <mxCell id="qmsK7Z5fBnWG_y2nSU_A-8" value="" style="edgeStyle=entityRelationEdgeStyle;fontSize=12;html=1;endArrow=ERzeroToMany;startArrow=ERmandOne;rounded=0;exitX=1;exitY=0.5;exitDx=0;exitDy=0;" parent="1" source="axUUv2KypCi063YYUATD-62" target="axUUv2KypCi063YYUATD-75" edge="1">
          <mxGeometry width="100" height="100" relative="1" as="geometry">
            <mxPoint x="-380" y="410" as="sourcePoint" />
            <mxPoint x="-280" y="310" as="targetPoint" />
          </mxGeometry>
        </mxCell>
        <mxCell id="qmsK7Z5fBnWG_y2nSU_A-9" value="" style="edgeStyle=entityRelationEdgeStyle;fontSize=12;html=1;endArrow=ERzeroToMany;startArrow=ERmandOne;rounded=0;exitX=1;exitY=0.5;exitDx=0;exitDy=0;entryX=0;entryY=0.5;entryDx=0;entryDy=0;" parent="1" source="FZp34ey01rAOAzYDmTqa-32" target="axUUv2KypCi063YYUATD-14" edge="1">
          <mxGeometry width="100" height="100" relative="1" as="geometry">
            <mxPoint x="-190" y="155" as="sourcePoint" />
            <mxPoint x="-190" y="305" as="targetPoint" />
          </mxGeometry>
        </mxCell>
        <mxCell id="qmsK7Z5fBnWG_y2nSU_A-11" value="" style="edgeStyle=entityRelationEdgeStyle;fontSize=12;html=1;endArrow=ERzeroToMany;endFill=1;startArrow=ERzeroToMany;rounded=0;exitX=1;exitY=0.5;exitDx=0;exitDy=0;entryX=-0.001;entryY=0.31;entryDx=0;entryDy=0;entryPerimeter=0;" parent="1" source="h3JEGPcKmmR4Bn5Vx9Nj-106" target="57J9HGHEWiLVGIEVYI9T-224" edge="1">
          <mxGeometry width="100" height="100" relative="1" as="geometry">
            <mxPoint x="-200.00000000000023" y="100.00000000000006" as="sourcePoint" />
            <mxPoint x="-120" y="70.00000000000003" as="targetPoint" />
            <Array as="points">
              <mxPoint x="160" y="200" />
              <mxPoint x="210" y="200" />
            </Array>
          </mxGeometry>
        </mxCell>
        <mxCell id="qmsK7Z5fBnWG_y2nSU_A-12" value="" style="edgeStyle=entityRelationEdgeStyle;fontSize=12;html=1;endArrow=ERzeroToMany;startArrow=ERmandOne;rounded=0;exitX=-0.003;exitY=0.697;exitDx=0;exitDy=0;exitPerimeter=0;entryX=1;entryY=0.5;entryDx=0;entryDy=0;" parent="1" source="57J9HGHEWiLVGIEVYI9T-224" target="axUUv2KypCi063YYUATD-11" edge="1">
          <mxGeometry width="100" height="100" relative="1" as="geometry">
            <mxPoint x="-190" y="155" as="sourcePoint" />
            <mxPoint x="-190" y="305" as="targetPoint" />
            <Array as="points">
              <mxPoint x="-140" y="140" />
            </Array>
          </mxGeometry>
        </mxCell>
        <mxCell id="h3JEGPcKmmR4Bn5Vx9Nj-48" value="Role" style="shape=table;startSize=30;container=1;collapsible=1;childLayout=tableLayout;fixedRows=1;rowLines=0;fontStyle=1;align=center;resizeLast=1;fillColor=#FFFFFF;" vertex="1" parent="1">
          <mxGeometry x="-1080" y="300" width="250" height="90.00000000000011" as="geometry" />
        </mxCell>
        <mxCell id="h3JEGPcKmmR4Bn5Vx9Nj-49" value="" style="shape=partialRectangle;collapsible=0;dropTarget=0;pointerEvents=0;fillColor=#FFFFFF;points=[[0,0.5],[1,0.5]];portConstraint=eastwest;top=0;left=0;right=0;bottom=1;" vertex="1" parent="h3JEGPcKmmR4Bn5Vx9Nj-48">
          <mxGeometry y="30" width="250" height="30" as="geometry" />
        </mxCell>
        <mxCell id="h3JEGPcKmmR4Bn5Vx9Nj-50" value="PK" style="shape=partialRectangle;overflow=hidden;connectable=0;fillColor=#FFFFFF;top=0;left=0;bottom=0;right=0;fontStyle=1;" vertex="1" parent="h3JEGPcKmmR4Bn5Vx9Nj-49">
          <mxGeometry width="30" height="30" as="geometry">
            <mxRectangle width="30" height="30" as="alternateBounds" />
          </mxGeometry>
        </mxCell>
        <mxCell id="h3JEGPcKmmR4Bn5Vx9Nj-51" value="role_id [bigint]" style="shape=partialRectangle;overflow=hidden;connectable=0;fillColor=#FFFFFF;top=0;left=0;bottom=0;right=0;align=left;spacingLeft=6;fontStyle=1;strokeColor=default;" vertex="1" parent="h3JEGPcKmmR4Bn5Vx9Nj-49">
          <mxGeometry x="30" width="220" height="30" as="geometry">
            <mxRectangle width="220" height="30" as="alternateBounds" />
          </mxGeometry>
        </mxCell>
        <mxCell id="h3JEGPcKmmR4Bn5Vx9Nj-58" style="shape=partialRectangle;collapsible=0;dropTarget=0;pointerEvents=0;fillColor=#FFFFFF;points=[[0,0.5],[1,0.5]];portConstraint=eastwest;top=0;left=0;right=0;bottom=0;" vertex="1" parent="h3JEGPcKmmR4Bn5Vx9Nj-48">
          <mxGeometry y="60" width="250" height="30" as="geometry" />
        </mxCell>
        <mxCell id="h3JEGPcKmmR4Bn5Vx9Nj-59" style="shape=partialRectangle;overflow=hidden;connectable=0;fillColor=#FFFFFF;top=0;left=0;bottom=0;right=0;" vertex="1" parent="h3JEGPcKmmR4Bn5Vx9Nj-58">
          <mxGeometry width="30" height="30" as="geometry">
            <mxRectangle width="30" height="30" as="alternateBounds" />
          </mxGeometry>
        </mxCell>
        <mxCell id="h3JEGPcKmmR4Bn5Vx9Nj-60" value="role_name [varchar(5)]" style="shape=partialRectangle;overflow=hidden;connectable=0;fillColor=#FFFFFF;top=0;left=0;bottom=0;right=0;align=left;spacingLeft=6;" vertex="1" parent="h3JEGPcKmmR4Bn5Vx9Nj-58">
          <mxGeometry x="30" width="220" height="30" as="geometry">
            <mxRectangle width="220" height="30" as="alternateBounds" />
          </mxGeometry>
        </mxCell>
        <mxCell id="h3JEGPcKmmR4Bn5Vx9Nj-68" value="" style="edgeStyle=entityRelationEdgeStyle;fontSize=12;html=1;endArrow=ERmandOne;startArrow=ERmandOne;rounded=0;exitX=1;exitY=0.5;exitDx=0;exitDy=0;entryX=1;entryY=0.5;entryDx=0;entryDy=0;fillColor=#FFFFFF;" edge="1" parent="1" source="h3JEGPcKmmR4Bn5Vx9Nj-1" target="h3JEGPcKmmR4Bn5Vx9Nj-49">
          <mxGeometry width="100" height="100" relative="1" as="geometry">
            <mxPoint x="-820" y="95" as="sourcePoint" />
            <mxPoint x="-750" y="125" as="targetPoint" />
          </mxGeometry>
        </mxCell>
        <mxCell id="h3JEGPcKmmR4Bn5Vx9Nj-91" value="Status" style="shape=table;startSize=30;container=1;collapsible=1;childLayout=tableLayout;fixedRows=1;rowLines=0;fontStyle=1;align=center;resizeLast=1;fillColor=#FFFFFF;" vertex="1" parent="1">
          <mxGeometry x="-450" y="500" width="250" height="90.00000000000011" as="geometry" />
        </mxCell>
        <mxCell id="h3JEGPcKmmR4Bn5Vx9Nj-92" value="" style="shape=partialRectangle;collapsible=0;dropTarget=0;pointerEvents=0;fillColor=#FFFFFF;points=[[0,0.5],[1,0.5]];portConstraint=eastwest;top=0;left=0;right=0;bottom=1;" vertex="1" parent="h3JEGPcKmmR4Bn5Vx9Nj-91">
          <mxGeometry y="30" width="250" height="30" as="geometry" />
        </mxCell>
        <mxCell id="h3JEGPcKmmR4Bn5Vx9Nj-93" value="PK" style="shape=partialRectangle;overflow=hidden;connectable=0;fillColor=#FFFFFF;top=0;left=0;bottom=0;right=0;fontStyle=1;" vertex="1" parent="h3JEGPcKmmR4Bn5Vx9Nj-92">
          <mxGeometry width="30" height="30" as="geometry">
            <mxRectangle width="30" height="30" as="alternateBounds" />
          </mxGeometry>
        </mxCell>
        <mxCell id="h3JEGPcKmmR4Bn5Vx9Nj-94" value="role_id [bigint]" style="shape=partialRectangle;overflow=hidden;connectable=0;fillColor=#FFFFFF;top=0;left=0;bottom=0;right=0;align=left;spacingLeft=6;fontStyle=1;strokeColor=default;" vertex="1" parent="h3JEGPcKmmR4Bn5Vx9Nj-92">
          <mxGeometry x="30" width="220" height="30" as="geometry">
            <mxRectangle width="220" height="30" as="alternateBounds" />
          </mxGeometry>
        </mxCell>
        <mxCell id="h3JEGPcKmmR4Bn5Vx9Nj-95" style="shape=partialRectangle;collapsible=0;dropTarget=0;pointerEvents=0;fillColor=#FFFFFF;points=[[0,0.5],[1,0.5]];portConstraint=eastwest;top=0;left=0;right=0;bottom=0;" vertex="1" parent="h3JEGPcKmmR4Bn5Vx9Nj-91">
          <mxGeometry y="60" width="250" height="30" as="geometry" />
        </mxCell>
        <mxCell id="h3JEGPcKmmR4Bn5Vx9Nj-96" style="shape=partialRectangle;overflow=hidden;connectable=0;fillColor=#FFFFFF;top=0;left=0;bottom=0;right=0;" vertex="1" parent="h3JEGPcKmmR4Bn5Vx9Nj-95">
          <mxGeometry width="30" height="30" as="geometry">
            <mxRectangle width="30" height="30" as="alternateBounds" />
          </mxGeometry>
        </mxCell>
        <mxCell id="h3JEGPcKmmR4Bn5Vx9Nj-97" value="role_name [varchar(5)]" style="shape=partialRectangle;overflow=hidden;connectable=0;fillColor=#FFFFFF;top=0;left=0;bottom=0;right=0;align=left;spacingLeft=6;" vertex="1" parent="h3JEGPcKmmR4Bn5Vx9Nj-95">
          <mxGeometry x="30" width="220" height="30" as="geometry">
            <mxRectangle width="220" height="30" as="alternateBounds" />
          </mxGeometry>
        </mxCell>
        <mxCell id="h3JEGPcKmmR4Bn5Vx9Nj-98" value="" style="edgeStyle=entityRelationEdgeStyle;fontSize=12;html=1;endArrow=ERmandOne;startArrow=ERmandOne;rounded=0;entryX=1;entryY=0.5;entryDx=0;entryDy=0;fillColor=#FFFFFF;" edge="1" parent="1" source="h3JEGPcKmmR4Bn5Vx9Nj-26" target="h3JEGPcKmmR4Bn5Vx9Nj-92">
          <mxGeometry width="100" height="100" relative="1" as="geometry">
            <mxPoint x="-130" y="280" as="sourcePoint" />
            <mxPoint x="-130" y="450" as="targetPoint" />
          </mxGeometry>
        </mxCell>
        <mxCell id="h3JEGPcKmmR4Bn5Vx9Nj-99" value="Cart_Item" style="shape=table;startSize=30;container=1;collapsible=1;childLayout=tableLayout;fixedRows=1;rowLines=0;fontStyle=1;align=center;resizeLast=1;fillColor=#FFFFFF;" vertex="1" parent="1">
          <mxGeometry x="-120" y="40" width="250" height="210.0000000000001" as="geometry" />
        </mxCell>
        <mxCell id="h3JEGPcKmmR4Bn5Vx9Nj-100" value="" style="shape=partialRectangle;collapsible=0;dropTarget=0;pointerEvents=0;fillColor=#FFFFFF;points=[[0,0.5],[1,0.5]];portConstraint=eastwest;top=0;left=0;right=0;bottom=1;" vertex="1" parent="h3JEGPcKmmR4Bn5Vx9Nj-99">
          <mxGeometry y="30" width="250" height="30" as="geometry" />
        </mxCell>
        <mxCell id="h3JEGPcKmmR4Bn5Vx9Nj-101" value="PK" style="shape=partialRectangle;overflow=hidden;connectable=0;fillColor=#FFFFFF;top=0;left=0;bottom=0;right=0;fontStyle=1;" vertex="1" parent="h3JEGPcKmmR4Bn5Vx9Nj-100">
          <mxGeometry width="30" height="30" as="geometry">
            <mxRectangle width="30" height="30" as="alternateBounds" />
          </mxGeometry>
        </mxCell>
        <mxCell id="h3JEGPcKmmR4Bn5Vx9Nj-102" value="cart_item_id [bigint]" style="shape=partialRectangle;overflow=hidden;connectable=0;fillColor=#FFFFFF;top=0;left=0;bottom=0;right=0;align=left;spacingLeft=6;fontStyle=1;" vertex="1" parent="h3JEGPcKmmR4Bn5Vx9Nj-100">
          <mxGeometry x="30" width="220" height="30" as="geometry">
            <mxRectangle width="220" height="30" as="alternateBounds" />
          </mxGeometry>
        </mxCell>
        <mxCell id="h3JEGPcKmmR4Bn5Vx9Nj-103" style="shape=partialRectangle;collapsible=0;dropTarget=0;pointerEvents=0;fillColor=#FFFFFF;points=[[0,0.5],[1,0.5]];portConstraint=eastwest;top=0;left=0;right=0;bottom=0;" vertex="1" parent="h3JEGPcKmmR4Bn5Vx9Nj-99">
          <mxGeometry y="60" width="250" height="30" as="geometry" />
        </mxCell>
        <mxCell id="h3JEGPcKmmR4Bn5Vx9Nj-104" value="FK" style="shape=partialRectangle;overflow=hidden;connectable=0;fillColor=#FFFFFF;top=0;left=0;bottom=0;right=0;" vertex="1" parent="h3JEGPcKmmR4Bn5Vx9Nj-103">
          <mxGeometry width="30" height="30" as="geometry">
            <mxRectangle width="30" height="30" as="alternateBounds" />
          </mxGeometry>
        </mxCell>
        <mxCell id="h3JEGPcKmmR4Bn5Vx9Nj-105" value="cart_id [bigint]" style="shape=partialRectangle;overflow=hidden;connectable=0;fillColor=#FFFFFF;top=0;left=0;bottom=0;right=0;align=left;spacingLeft=6;" vertex="1" parent="h3JEGPcKmmR4Bn5Vx9Nj-103">
          <mxGeometry x="30" width="220" height="30" as="geometry">
            <mxRectangle width="220" height="30" as="alternateBounds" />
          </mxGeometry>
        </mxCell>
        <mxCell id="h3JEGPcKmmR4Bn5Vx9Nj-106" value="" style="shape=partialRectangle;collapsible=0;dropTarget=0;pointerEvents=0;fillColor=#FFFFFF;points=[[0,0.5],[1,0.5]];portConstraint=eastwest;top=0;left=0;right=0;bottom=0;" vertex="1" parent="h3JEGPcKmmR4Bn5Vx9Nj-99">
          <mxGeometry y="90" width="250" height="30" as="geometry" />
        </mxCell>
        <mxCell id="h3JEGPcKmmR4Bn5Vx9Nj-107" value="FK" style="shape=partialRectangle;overflow=hidden;connectable=0;fillColor=#FFFFFF;top=0;left=0;bottom=0;right=0;" vertex="1" parent="h3JEGPcKmmR4Bn5Vx9Nj-106">
          <mxGeometry width="30" height="30" as="geometry">
            <mxRectangle width="30" height="30" as="alternateBounds" />
          </mxGeometry>
        </mxCell>
        <mxCell id="h3JEGPcKmmR4Bn5Vx9Nj-108" value="product_id [bigint]" style="shape=partialRectangle;overflow=hidden;connectable=0;fillColor=#FFFFFF;top=0;left=0;bottom=0;right=0;align=left;spacingLeft=6;" vertex="1" parent="h3JEGPcKmmR4Bn5Vx9Nj-106">
          <mxGeometry x="30" width="220" height="30" as="geometry">
            <mxRectangle width="220" height="30" as="alternateBounds" />
          </mxGeometry>
        </mxCell>
        <mxCell id="h3JEGPcKmmR4Bn5Vx9Nj-109" style="shape=partialRectangle;collapsible=0;dropTarget=0;pointerEvents=0;fillColor=#FFFFFF;points=[[0,0.5],[1,0.5]];portConstraint=eastwest;top=0;left=0;right=0;bottom=0;" vertex="1" parent="h3JEGPcKmmR4Bn5Vx9Nj-99">
          <mxGeometry y="120" width="250" height="30" as="geometry" />
        </mxCell>
        <mxCell id="h3JEGPcKmmR4Bn5Vx9Nj-110" style="shape=partialRectangle;overflow=hidden;connectable=0;fillColor=#FFFFFF;top=0;left=0;bottom=0;right=0;" vertex="1" parent="h3JEGPcKmmR4Bn5Vx9Nj-109">
          <mxGeometry width="30" height="30" as="geometry">
            <mxRectangle width="30" height="30" as="alternateBounds" />
          </mxGeometry>
        </mxCell>
        <mxCell id="h3JEGPcKmmR4Bn5Vx9Nj-111" value="quantity [integer(3)]" style="shape=partialRectangle;overflow=hidden;connectable=0;fillColor=#FFFFFF;top=0;left=0;bottom=0;right=0;align=left;spacingLeft=6;" vertex="1" parent="h3JEGPcKmmR4Bn5Vx9Nj-109">
          <mxGeometry x="30" width="220" height="30" as="geometry">
            <mxRectangle width="220" height="30" as="alternateBounds" />
          </mxGeometry>
        </mxCell>
        <mxCell id="h3JEGPcKmmR4Bn5Vx9Nj-118" style="shape=partialRectangle;collapsible=0;dropTarget=0;pointerEvents=0;fillColor=#FFFFFF;points=[[0,0.5],[1,0.5]];portConstraint=eastwest;top=0;left=0;right=0;bottom=0;" vertex="1" parent="h3JEGPcKmmR4Bn5Vx9Nj-99">
          <mxGeometry y="150" width="250" height="30" as="geometry" />
        </mxCell>
        <mxCell id="h3JEGPcKmmR4Bn5Vx9Nj-119" style="shape=partialRectangle;overflow=hidden;connectable=0;fillColor=#FFFFFF;top=0;left=0;bottom=0;right=0;" vertex="1" parent="h3JEGPcKmmR4Bn5Vx9Nj-118">
          <mxGeometry width="30" height="30" as="geometry">
            <mxRectangle width="30" height="30" as="alternateBounds" />
          </mxGeometry>
        </mxCell>
        <mxCell id="h3JEGPcKmmR4Bn5Vx9Nj-120" value="created_at [timestamp]" style="shape=partialRectangle;overflow=hidden;connectable=0;fillColor=#FFFFFF;top=0;left=0;bottom=0;right=0;align=left;spacingLeft=6;" vertex="1" parent="h3JEGPcKmmR4Bn5Vx9Nj-118">
          <mxGeometry x="30" width="220" height="30" as="geometry">
            <mxRectangle width="220" height="30" as="alternateBounds" />
          </mxGeometry>
        </mxCell>
        <mxCell id="h3JEGPcKmmR4Bn5Vx9Nj-115" style="shape=partialRectangle;collapsible=0;dropTarget=0;pointerEvents=0;fillColor=#FFFFFF;points=[[0,0.5],[1,0.5]];portConstraint=eastwest;top=0;left=0;right=0;bottom=0;" vertex="1" parent="h3JEGPcKmmR4Bn5Vx9Nj-99">
          <mxGeometry y="180" width="250" height="30" as="geometry" />
        </mxCell>
        <mxCell id="h3JEGPcKmmR4Bn5Vx9Nj-116" style="shape=partialRectangle;overflow=hidden;connectable=0;fillColor=#FFFFFF;top=0;left=0;bottom=0;right=0;" vertex="1" parent="h3JEGPcKmmR4Bn5Vx9Nj-115">
          <mxGeometry width="30" height="30" as="geometry">
            <mxRectangle width="30" height="30" as="alternateBounds" />
          </mxGeometry>
        </mxCell>
        <mxCell id="h3JEGPcKmmR4Bn5Vx9Nj-117" value="updated_at [timestamp]" style="shape=partialRectangle;overflow=hidden;connectable=0;fillColor=#FFFFFF;top=0;left=0;bottom=0;right=0;align=left;spacingLeft=6;" vertex="1" parent="h3JEGPcKmmR4Bn5Vx9Nj-115">
          <mxGeometry x="30" width="220" height="30" as="geometry">
            <mxRectangle width="220" height="30" as="alternateBounds" />
          </mxGeometry>
        </mxCell>
        <mxCell id="h3JEGPcKmmR4Bn5Vx9Nj-121" value="" style="edgeStyle=entityRelationEdgeStyle;fontSize=12;html=1;endArrow=ERzeroToMany;startArrow=ERmandOne;rounded=0;exitX=1;exitY=0.5;exitDx=0;exitDy=0;entryX=0;entryY=0.5;entryDx=0;entryDy=0;" edge="1" parent="1" source="axUUv2KypCi063YYUATD-59" target="h3JEGPcKmmR4Bn5Vx9Nj-103">
          <mxGeometry width="100" height="100" relative="1" as="geometry">
            <mxPoint x="-100" y="-40" as="sourcePoint" />
            <mxPoint x="-100" y="160" as="targetPoint" />
          </mxGeometry>
        </mxCell>
      </root>
    </mxGraphModel>
  </diagram>
  <diagram id="0vIlzV6ax4ji2yt30US2" name="Diagram Flow Chart">
    <mxGraphModel dx="1824" dy="782" grid="1" gridSize="10" guides="1" tooltips="1" connect="1" arrows="1" fold="1" page="1" pageScale="1" pageWidth="850" pageHeight="1100" math="0" shadow="0">
      <root>
        <mxCell id="0" />
        <mxCell id="1" parent="0" />
        <mxCell id="SpF6GZIDmAaOeA5q9CdE-1" value="Start" style="strokeWidth=2;html=1;shape=mxgraph.flowchart.start_1;whiteSpace=wrap;" parent="1" vertex="1">
          <mxGeometry x="640" y="40" width="100" height="60" as="geometry" />
        </mxCell>
        <mxCell id="SpF6GZIDmAaOeA5q9CdE-9" value="Employee" style="edgeStyle=orthogonalEdgeStyle;rounded=0;orthogonalLoop=1;jettySize=auto;html=1;exitX=1;exitY=0.5;exitDx=0;exitDy=0;exitPerimeter=0;entryX=0.5;entryY=0;entryDx=0;entryDy=0;" parent="1" source="SpF6GZIDmAaOeA5q9CdE-2" target="SpF6GZIDmAaOeA5q9CdE-6" edge="1">
          <mxGeometry relative="1" as="geometry" />
        </mxCell>
        <mxCell id="SpF6GZIDmAaOeA5q9CdE-2" value="Are you a customer or employee?" style="strokeWidth=2;html=1;shape=mxgraph.flowchart.decision;whiteSpace=wrap;" parent="1" vertex="1">
          <mxGeometry x="640" y="140" width="100" height="100" as="geometry" />
        </mxCell>
        <mxCell id="SpF6GZIDmAaOeA5q9CdE-20" style="edgeStyle=orthogonalEdgeStyle;rounded=0;orthogonalLoop=1;jettySize=auto;html=1;exitX=0.5;exitY=1;exitDx=0;exitDy=0;entryX=0.5;entryY=0;entryDx=0;entryDy=0;" parent="1" source="SpF6GZIDmAaOeA5q9CdE-3" target="SpF6GZIDmAaOeA5q9CdE-19" edge="1">
          <mxGeometry relative="1" as="geometry" />
        </mxCell>
        <mxCell id="SpF6GZIDmAaOeA5q9CdE-3" value="Register" style="rounded=1;whiteSpace=wrap;html=1;absoluteArcSize=1;arcSize=14;strokeWidth=2;" parent="1" vertex="1">
          <mxGeometry x="380" y="380" width="100" height="50" as="geometry" />
        </mxCell>
        <mxCell id="SpF6GZIDmAaOeA5q9CdE-14" value="No" style="edgeStyle=orthogonalEdgeStyle;rounded=0;orthogonalLoop=1;jettySize=auto;html=1;exitX=0.5;exitY=1;exitDx=0;exitDy=0;exitPerimeter=0;entryX=0.5;entryY=0;entryDx=0;entryDy=0;" parent="1" source="SpF6GZIDmAaOeA5q9CdE-5" target="SpF6GZIDmAaOeA5q9CdE-3" edge="1">
          <mxGeometry relative="1" as="geometry" />
        </mxCell>
        <mxCell id="SpF6GZIDmAaOeA5q9CdE-21" value="Yes" style="edgeStyle=orthogonalEdgeStyle;rounded=0;orthogonalLoop=1;jettySize=auto;html=1;exitX=0;exitY=0.5;exitDx=0;exitDy=0;exitPerimeter=0;entryX=0;entryY=0.5;entryDx=0;entryDy=0;" parent="1" source="SpF6GZIDmAaOeA5q9CdE-5" target="SpF6GZIDmAaOeA5q9CdE-19" edge="1">
          <mxGeometry relative="1" as="geometry" />
        </mxCell>
        <mxCell id="SpF6GZIDmAaOeA5q9CdE-5" value="Do you have &lt;br&gt;an account?" style="strokeWidth=2;html=1;shape=mxgraph.flowchart.decision;whiteSpace=wrap;" parent="1" vertex="1">
          <mxGeometry x="380" y="240" width="100" height="100" as="geometry" />
        </mxCell>
        <mxCell id="SpF6GZIDmAaOeA5q9CdE-6" value="Login as Admin" style="rounded=1;whiteSpace=wrap;html=1;absoluteArcSize=1;arcSize=14;strokeWidth=2;" parent="1" vertex="1">
          <mxGeometry x="900" y="265" width="100" height="50" as="geometry" />
        </mxCell>
        <mxCell id="SpF6GZIDmAaOeA5q9CdE-7" style="edgeStyle=orthogonalEdgeStyle;rounded=0;orthogonalLoop=1;jettySize=auto;html=1;exitX=0.5;exitY=1;exitDx=0;exitDy=0;exitPerimeter=0;entryX=0.5;entryY=0;entryDx=0;entryDy=0;entryPerimeter=0;" parent="1" source="SpF6GZIDmAaOeA5q9CdE-1" target="SpF6GZIDmAaOeA5q9CdE-2" edge="1">
          <mxGeometry relative="1" as="geometry" />
        </mxCell>
        <mxCell id="SpF6GZIDmAaOeA5q9CdE-8" value="Customer" style="edgeStyle=orthogonalEdgeStyle;rounded=0;orthogonalLoop=1;jettySize=auto;html=1;exitX=0;exitY=0.5;exitDx=0;exitDy=0;exitPerimeter=0;entryX=0.5;entryY=0;entryDx=0;entryDy=0;entryPerimeter=0;" parent="1" source="SpF6GZIDmAaOeA5q9CdE-2" target="SpF6GZIDmAaOeA5q9CdE-5" edge="1">
          <mxGeometry relative="1" as="geometry">
            <mxPoint as="offset" />
          </mxGeometry>
        </mxCell>
        <mxCell id="SpF6GZIDmAaOeA5q9CdE-36" style="edgeStyle=orthogonalEdgeStyle;rounded=0;orthogonalLoop=1;jettySize=auto;html=1;exitX=0.5;exitY=1;exitDx=0;exitDy=0;entryX=0.5;entryY=0;entryDx=0;entryDy=0;" parent="1" source="SpF6GZIDmAaOeA5q9CdE-19" target="SpF6GZIDmAaOeA5q9CdE-32" edge="1">
          <mxGeometry relative="1" as="geometry" />
        </mxCell>
        <mxCell id="SpF6GZIDmAaOeA5q9CdE-39" style="edgeStyle=orthogonalEdgeStyle;rounded=0;orthogonalLoop=1;jettySize=auto;html=1;exitX=0.5;exitY=1;exitDx=0;exitDy=0;" parent="1" source="SpF6GZIDmAaOeA5q9CdE-19" target="SpF6GZIDmAaOeA5q9CdE-33" edge="1">
          <mxGeometry relative="1" as="geometry" />
        </mxCell>
        <mxCell id="SpF6GZIDmAaOeA5q9CdE-19" value="Login as User" style="rounded=1;whiteSpace=wrap;html=1;absoluteArcSize=1;arcSize=14;strokeWidth=2;" parent="1" vertex="1">
          <mxGeometry x="380" y="480" width="100" height="50" as="geometry" />
        </mxCell>
        <mxCell id="SpF6GZIDmAaOeA5q9CdE-26" value="Edit Product Listing / Stock" style="rounded=1;whiteSpace=wrap;html=1;absoluteArcSize=1;arcSize=14;strokeWidth=2;" parent="1" vertex="1">
          <mxGeometry x="1050" y="650" width="100" height="50" as="geometry" />
        </mxCell>
        <mxCell id="SpF6GZIDmAaOeA5q9CdE-69" style="edgeStyle=orthogonalEdgeStyle;rounded=0;orthogonalLoop=1;jettySize=auto;html=1;exitX=0.5;exitY=1;exitDx=0;exitDy=0;entryX=0.5;entryY=0;entryDx=0;entryDy=0;entryPerimeter=0;" parent="1" source="SpF6GZIDmAaOeA5q9CdE-29" target="SpF6GZIDmAaOeA5q9CdE-73" edge="1">
          <mxGeometry relative="1" as="geometry" />
        </mxCell>
        <mxCell id="SpF6GZIDmAaOeA5q9CdE-29" value="View Product Detail" style="rounded=1;whiteSpace=wrap;html=1;absoluteArcSize=1;arcSize=14;strokeWidth=2;" parent="1" vertex="1">
          <mxGeometry x="380" y="810" width="100" height="50" as="geometry" />
        </mxCell>
        <mxCell id="SpF6GZIDmAaOeA5q9CdE-129" style="edgeStyle=orthogonalEdgeStyle;rounded=0;orthogonalLoop=1;jettySize=auto;html=1;entryX=0.5;entryY=0;entryDx=0;entryDy=0;" parent="1" source="SpF6GZIDmAaOeA5q9CdE-30" target="SpF6GZIDmAaOeA5q9CdE-124" edge="1">
          <mxGeometry relative="1" as="geometry" />
        </mxCell>
        <mxCell id="SpF6GZIDmAaOeA5q9CdE-30" value="Review Order List&amp;nbsp;" style="rounded=1;whiteSpace=wrap;html=1;absoluteArcSize=1;arcSize=14;strokeWidth=2;" parent="1" vertex="1">
          <mxGeometry x="780" y="505" width="100" height="50" as="geometry" />
        </mxCell>
        <mxCell id="SpF6GZIDmAaOeA5q9CdE-32" value="View Account Profile" style="rounded=1;whiteSpace=wrap;html=1;absoluteArcSize=1;arcSize=14;strokeWidth=2;" parent="1" vertex="1">
          <mxGeometry x="130" y="580" width="100" height="50" as="geometry" />
        </mxCell>
        <mxCell id="SpF6GZIDmAaOeA5q9CdE-67" style="edgeStyle=orthogonalEdgeStyle;rounded=0;orthogonalLoop=1;jettySize=auto;html=1;exitX=0.5;exitY=1;exitDx=0;exitDy=0;entryX=0.5;entryY=0;entryDx=0;entryDy=0;" parent="1" source="SpF6GZIDmAaOeA5q9CdE-33" target="SpF6GZIDmAaOeA5q9CdE-29" edge="1">
          <mxGeometry relative="1" as="geometry" />
        </mxCell>
        <mxCell id="SpF6GZIDmAaOeA5q9CdE-68" style="edgeStyle=orthogonalEdgeStyle;rounded=0;orthogonalLoop=1;jettySize=auto;html=1;exitX=0.5;exitY=1;exitDx=0;exitDy=0;entryX=0.5;entryY=0;entryDx=0;entryDy=0;entryPerimeter=0;" parent="1" source="SpF6GZIDmAaOeA5q9CdE-33" target="SpF6GZIDmAaOeA5q9CdE-73" edge="1">
          <mxGeometry relative="1" as="geometry">
            <Array as="points">
              <mxPoint x="430" y="770" />
              <mxPoint x="360" y="770" />
              <mxPoint x="360" y="890" />
              <mxPoint x="430" y="890" />
            </Array>
          </mxGeometry>
        </mxCell>
        <mxCell id="SpF6GZIDmAaOeA5q9CdE-33" value="Shopping" style="rounded=1;whiteSpace=wrap;html=1;absoluteArcSize=1;arcSize=14;strokeWidth=2;" parent="1" vertex="1">
          <mxGeometry x="380" y="685" width="100" height="50" as="geometry" />
        </mxCell>
        <mxCell id="SpF6GZIDmAaOeA5q9CdE-34" value="Edit Account" style="rounded=1;whiteSpace=wrap;html=1;absoluteArcSize=1;arcSize=14;strokeWidth=2;" parent="1" vertex="1">
          <mxGeometry x="60" y="810" width="100" height="50" as="geometry" />
        </mxCell>
        <mxCell id="SpF6GZIDmAaOeA5q9CdE-35" value="Delete Account" style="rounded=1;whiteSpace=wrap;html=1;absoluteArcSize=1;arcSize=14;strokeWidth=2;" parent="1" vertex="1">
          <mxGeometry x="200" y="810" width="100" height="50" as="geometry" />
        </mxCell>
        <mxCell id="SpF6GZIDmAaOeA5q9CdE-40" value="End" style="strokeWidth=2;html=1;shape=mxgraph.flowchart.terminator;whiteSpace=wrap;" parent="1" vertex="1">
          <mxGeometry x="200" y="910" width="100" height="60" as="geometry" />
        </mxCell>
        <mxCell id="SpF6GZIDmAaOeA5q9CdE-48" value="Neither" style="edgeStyle=orthogonalEdgeStyle;rounded=0;orthogonalLoop=1;jettySize=auto;html=1;exitX=1;exitY=0.5;exitDx=0;exitDy=0;exitPerimeter=0;entryX=0;entryY=0.5;entryDx=0;entryDy=0;" parent="1" source="SpF6GZIDmAaOeA5q9CdE-44" target="SpF6GZIDmAaOeA5q9CdE-33" edge="1">
          <mxGeometry relative="1" as="geometry" />
        </mxCell>
        <mxCell id="SpF6GZIDmAaOeA5q9CdE-49" value="Edit" style="edgeStyle=orthogonalEdgeStyle;rounded=0;orthogonalLoop=1;jettySize=auto;html=1;exitX=0.5;exitY=1;exitDx=0;exitDy=0;exitPerimeter=0;entryX=0.5;entryY=0;entryDx=0;entryDy=0;" parent="1" source="SpF6GZIDmAaOeA5q9CdE-44" target="SpF6GZIDmAaOeA5q9CdE-34" edge="1">
          <mxGeometry relative="1" as="geometry" />
        </mxCell>
        <mxCell id="SpF6GZIDmAaOeA5q9CdE-50" value="Delete" style="edgeStyle=orthogonalEdgeStyle;rounded=0;orthogonalLoop=1;jettySize=auto;html=1;exitX=0.5;exitY=1;exitDx=0;exitDy=0;exitPerimeter=0;entryX=0.5;entryY=0;entryDx=0;entryDy=0;" parent="1" source="SpF6GZIDmAaOeA5q9CdE-44" target="SpF6GZIDmAaOeA5q9CdE-35" edge="1">
          <mxGeometry relative="1" as="geometry" />
        </mxCell>
        <mxCell id="SpF6GZIDmAaOeA5q9CdE-44" value="Do you &lt;br&gt;want to Edit / Delete &lt;br&gt;profile?" style="strokeWidth=2;html=1;shape=mxgraph.flowchart.decision;whiteSpace=wrap;" parent="1" vertex="1">
          <mxGeometry x="130" y="660" width="100" height="100" as="geometry" />
        </mxCell>
        <mxCell id="SpF6GZIDmAaOeA5q9CdE-45" style="edgeStyle=orthogonalEdgeStyle;rounded=0;orthogonalLoop=1;jettySize=auto;html=1;exitX=0.5;exitY=1;exitDx=0;exitDy=0;entryX=0.5;entryY=0;entryDx=0;entryDy=0;entryPerimeter=0;" parent="1" source="SpF6GZIDmAaOeA5q9CdE-32" target="SpF6GZIDmAaOeA5q9CdE-44" edge="1">
          <mxGeometry relative="1" as="geometry" />
        </mxCell>
        <mxCell id="SpF6GZIDmAaOeA5q9CdE-51" style="edgeStyle=orthogonalEdgeStyle;rounded=0;orthogonalLoop=1;jettySize=auto;html=1;exitX=0.5;exitY=1;exitDx=0;exitDy=0;entryX=0.5;entryY=0;entryDx=0;entryDy=0;entryPerimeter=0;" parent="1" source="SpF6GZIDmAaOeA5q9CdE-35" target="SpF6GZIDmAaOeA5q9CdE-40" edge="1">
          <mxGeometry relative="1" as="geometry" />
        </mxCell>
        <mxCell id="SpF6GZIDmAaOeA5q9CdE-105" style="edgeStyle=orthogonalEdgeStyle;rounded=0;orthogonalLoop=1;jettySize=auto;html=1;exitX=0.5;exitY=1;exitDx=0;exitDy=0;entryX=0.5;entryY=0;entryDx=0;entryDy=0;" parent="1" source="SpF6GZIDmAaOeA5q9CdE-52" target="SpF6GZIDmAaOeA5q9CdE-100" edge="1">
          <mxGeometry relative="1" as="geometry" />
        </mxCell>
        <mxCell id="SpF6GZIDmAaOeA5q9CdE-52" value="Check Out &amp;amp; Make Order" style="rounded=1;whiteSpace=wrap;html=1;absoluteArcSize=1;arcSize=14;strokeWidth=2;" parent="1" vertex="1">
          <mxGeometry x="380" y="1460" width="100" height="50" as="geometry" />
        </mxCell>
        <mxCell id="SpF6GZIDmAaOeA5q9CdE-63" style="edgeStyle=orthogonalEdgeStyle;rounded=0;orthogonalLoop=1;jettySize=auto;html=1;exitX=0;exitY=0.5;exitDx=0;exitDy=0;exitPerimeter=0;entryX=1;entryY=0.75;entryDx=0;entryDy=0;" parent="1" source="SpF6GZIDmAaOeA5q9CdE-53" target="SpF6GZIDmAaOeA5q9CdE-33" edge="1">
          <mxGeometry relative="1" as="geometry" />
        </mxCell>
        <mxCell id="SpF6GZIDmAaOeA5q9CdE-75" value="No" style="edgeLabel;html=1;align=center;verticalAlign=middle;resizable=0;points=[];" parent="SpF6GZIDmAaOeA5q9CdE-63" vertex="1" connectable="0">
          <mxGeometry x="-0.6893" y="1" relative="1" as="geometry">
            <mxPoint as="offset" />
          </mxGeometry>
        </mxCell>
        <mxCell id="SpF6GZIDmAaOeA5q9CdE-64" value="Yes" style="edgeStyle=orthogonalEdgeStyle;rounded=0;orthogonalLoop=1;jettySize=auto;html=1;exitX=0.5;exitY=1;exitDx=0;exitDy=0;exitPerimeter=0;entryX=0.5;entryY=0;entryDx=0;entryDy=0;" parent="1" source="SpF6GZIDmAaOeA5q9CdE-53" target="SpF6GZIDmAaOeA5q9CdE-56" edge="1">
          <mxGeometry relative="1" as="geometry">
            <Array as="points">
              <mxPoint x="610" y="850" />
              <mxPoint x="610" y="850" />
            </Array>
          </mxGeometry>
        </mxCell>
        <mxCell id="SpF6GZIDmAaOeA5q9CdE-53" value="Are you &lt;br&gt;searching for a certain &lt;br&gt;product?" style="strokeWidth=2;html=1;shape=mxgraph.flowchart.decision;whiteSpace=wrap;" parent="1" vertex="1">
          <mxGeometry x="560" y="735" width="100" height="100" as="geometry" />
        </mxCell>
        <mxCell id="SpF6GZIDmAaOeA5q9CdE-65" style="edgeStyle=orthogonalEdgeStyle;rounded=0;orthogonalLoop=1;jettySize=auto;html=1;exitX=0;exitY=0.5;exitDx=0;exitDy=0;entryX=1;entryY=0.75;entryDx=0;entryDy=0;" parent="1" source="SpF6GZIDmAaOeA5q9CdE-56" target="SpF6GZIDmAaOeA5q9CdE-33" edge="1">
          <mxGeometry relative="1" as="geometry" />
        </mxCell>
        <mxCell id="SpF6GZIDmAaOeA5q9CdE-56" value="Filter Product" style="rounded=1;whiteSpace=wrap;html=1;absoluteArcSize=1;arcSize=14;strokeWidth=2;" parent="1" vertex="1">
          <mxGeometry x="560" y="880" width="100" height="50" as="geometry" />
        </mxCell>
        <mxCell id="SpF6GZIDmAaOeA5q9CdE-104" style="edgeStyle=orthogonalEdgeStyle;rounded=0;orthogonalLoop=1;jettySize=auto;html=1;exitX=1;exitY=0.5;exitDx=0;exitDy=0;entryX=0;entryY=0.5;entryDx=0;entryDy=0;" parent="1" source="SpF6GZIDmAaOeA5q9CdE-58" target="SpF6GZIDmAaOeA5q9CdE-71" edge="1">
          <mxGeometry relative="1" as="geometry" />
        </mxCell>
        <mxCell id="SpF6GZIDmAaOeA5q9CdE-58" value="Add to Cart" style="rounded=1;whiteSpace=wrap;html=1;absoluteArcSize=1;arcSize=14;strokeWidth=2;" parent="1" vertex="1">
          <mxGeometry x="380" y="1050" width="100" height="50" as="geometry" />
        </mxCell>
        <mxCell id="SpF6GZIDmAaOeA5q9CdE-62" style="edgeStyle=orthogonalEdgeStyle;rounded=0;orthogonalLoop=1;jettySize=auto;html=1;exitX=1;exitY=0.5;exitDx=0;exitDy=0;entryX=0.5;entryY=0;entryDx=0;entryDy=0;entryPerimeter=0;" parent="1" source="SpF6GZIDmAaOeA5q9CdE-33" target="SpF6GZIDmAaOeA5q9CdE-53" edge="1">
          <mxGeometry relative="1" as="geometry" />
        </mxCell>
        <mxCell id="SpF6GZIDmAaOeA5q9CdE-71" value="View Cart" style="rounded=1;whiteSpace=wrap;html=1;absoluteArcSize=1;arcSize=14;strokeWidth=2;" parent="1" vertex="1">
          <mxGeometry x="535" y="1050" width="100" height="50" as="geometry" />
        </mxCell>
        <mxCell id="SpF6GZIDmAaOeA5q9CdE-79" value="Yes" style="edgeStyle=orthogonalEdgeStyle;rounded=0;orthogonalLoop=1;jettySize=auto;html=1;exitX=0.5;exitY=1;exitDx=0;exitDy=0;exitPerimeter=0;entryX=0.5;entryY=0;entryDx=0;entryDy=0;" parent="1" source="SpF6GZIDmAaOeA5q9CdE-73" target="SpF6GZIDmAaOeA5q9CdE-58" edge="1">
          <mxGeometry relative="1" as="geometry" />
        </mxCell>
        <mxCell id="SpF6GZIDmAaOeA5q9CdE-80" style="edgeStyle=orthogonalEdgeStyle;rounded=0;orthogonalLoop=1;jettySize=auto;html=1;exitX=0;exitY=0.5;exitDx=0;exitDy=0;exitPerimeter=0;entryX=0.25;entryY=1;entryDx=0;entryDy=0;" parent="1" source="SpF6GZIDmAaOeA5q9CdE-73" target="SpF6GZIDmAaOeA5q9CdE-33" edge="1">
          <mxGeometry relative="1" as="geometry">
            <Array as="points">
              <mxPoint x="330" y="960" />
              <mxPoint x="330" y="750" />
              <mxPoint x="405" y="750" />
            </Array>
          </mxGeometry>
        </mxCell>
        <mxCell id="SpF6GZIDmAaOeA5q9CdE-81" value="No" style="edgeLabel;html=1;align=center;verticalAlign=middle;resizable=0;points=[];" parent="SpF6GZIDmAaOeA5q9CdE-80" vertex="1" connectable="0">
          <mxGeometry x="-0.8775" y="-1" relative="1" as="geometry">
            <mxPoint as="offset" />
          </mxGeometry>
        </mxCell>
        <mxCell id="SpF6GZIDmAaOeA5q9CdE-73" value="Do you &lt;br&gt;want to buy this &lt;br&gt;Product?" style="strokeWidth=2;html=1;shape=mxgraph.flowchart.decision;whiteSpace=wrap;" parent="1" vertex="1">
          <mxGeometry x="380" y="910" width="100" height="100" as="geometry" />
        </mxCell>
        <mxCell id="SpF6GZIDmAaOeA5q9CdE-78" style="edgeStyle=orthogonalEdgeStyle;rounded=0;orthogonalLoop=1;jettySize=auto;html=1;exitX=0;exitY=0.5;exitDx=0;exitDy=0;entryX=0;entryY=0.5;entryDx=0;entryDy=0;entryPerimeter=0;" parent="1" source="SpF6GZIDmAaOeA5q9CdE-34" target="SpF6GZIDmAaOeA5q9CdE-44" edge="1">
          <mxGeometry relative="1" as="geometry" />
        </mxCell>
        <mxCell id="SpF6GZIDmAaOeA5q9CdE-87" style="edgeStyle=orthogonalEdgeStyle;rounded=0;orthogonalLoop=1;jettySize=auto;html=1;exitX=0;exitY=0.5;exitDx=0;exitDy=0;exitPerimeter=0;entryX=0.25;entryY=1;entryDx=0;entryDy=0;" parent="1" source="SpF6GZIDmAaOeA5q9CdE-84" target="SpF6GZIDmAaOeA5q9CdE-33" edge="1">
          <mxGeometry relative="1" as="geometry">
            <Array as="points">
              <mxPoint x="330" y="1210" />
              <mxPoint x="330" y="750" />
              <mxPoint x="405" y="750" />
            </Array>
          </mxGeometry>
        </mxCell>
        <mxCell id="SpF6GZIDmAaOeA5q9CdE-88" value="Yes" style="edgeLabel;html=1;align=center;verticalAlign=middle;resizable=0;points=[];" parent="SpF6GZIDmAaOeA5q9CdE-87" vertex="1" connectable="0">
          <mxGeometry x="-0.9383" y="1" relative="1" as="geometry">
            <mxPoint as="offset" />
          </mxGeometry>
        </mxCell>
        <mxCell id="SpF6GZIDmAaOeA5q9CdE-84" value="Do you &lt;br&gt;want to buy anything &lt;br&gt;else?" style="strokeWidth=2;html=1;shape=mxgraph.flowchart.decision;whiteSpace=wrap;" parent="1" vertex="1">
          <mxGeometry x="380" y="1160" width="100" height="100" as="geometry" />
        </mxCell>
        <mxCell id="SpF6GZIDmAaOeA5q9CdE-86" style="edgeStyle=orthogonalEdgeStyle;rounded=0;orthogonalLoop=1;jettySize=auto;html=1;exitX=0.5;exitY=1;exitDx=0;exitDy=0;entryX=0.5;entryY=0;entryDx=0;entryDy=0;entryPerimeter=0;" parent="1" source="SpF6GZIDmAaOeA5q9CdE-71" target="SpF6GZIDmAaOeA5q9CdE-84" edge="1">
          <mxGeometry relative="1" as="geometry" />
        </mxCell>
        <mxCell id="SpF6GZIDmAaOeA5q9CdE-95" style="edgeStyle=orthogonalEdgeStyle;rounded=0;orthogonalLoop=1;jettySize=auto;html=1;exitX=1;exitY=0.5;exitDx=0;exitDy=0;exitPerimeter=0;entryX=0;entryY=0.5;entryDx=0;entryDy=0;" parent="1" source="SpF6GZIDmAaOeA5q9CdE-90" target="SpF6GZIDmAaOeA5q9CdE-94" edge="1">
          <mxGeometry relative="1" as="geometry" />
        </mxCell>
        <mxCell id="SpF6GZIDmAaOeA5q9CdE-96" style="edgeStyle=orthogonalEdgeStyle;rounded=0;orthogonalLoop=1;jettySize=auto;html=1;exitX=1;exitY=0.5;exitDx=0;exitDy=0;exitPerimeter=0;entryX=0;entryY=0.5;entryDx=0;entryDy=0;" parent="1" source="SpF6GZIDmAaOeA5q9CdE-90" target="SpF6GZIDmAaOeA5q9CdE-93" edge="1">
          <mxGeometry relative="1" as="geometry" />
        </mxCell>
        <mxCell id="SpF6GZIDmAaOeA5q9CdE-99" style="edgeStyle=orthogonalEdgeStyle;rounded=0;orthogonalLoop=1;jettySize=auto;html=1;exitX=0.5;exitY=1;exitDx=0;exitDy=0;exitPerimeter=0;entryX=0.5;entryY=0;entryDx=0;entryDy=0;" parent="1" source="SpF6GZIDmAaOeA5q9CdE-90" target="SpF6GZIDmAaOeA5q9CdE-52" edge="1">
          <mxGeometry relative="1" as="geometry" />
        </mxCell>
        <mxCell id="SpF6GZIDmAaOeA5q9CdE-90" value="Do you&lt;br&gt;want to edit / delete a &lt;br&gt;product?" style="strokeWidth=2;html=1;shape=mxgraph.flowchart.decision;whiteSpace=wrap;" parent="1" vertex="1">
          <mxGeometry x="380" y="1320" width="100" height="100" as="geometry" />
        </mxCell>
        <mxCell id="SpF6GZIDmAaOeA5q9CdE-92" value="No" style="edgeStyle=orthogonalEdgeStyle;rounded=0;orthogonalLoop=1;jettySize=auto;html=1;exitX=0.5;exitY=1;exitDx=0;exitDy=0;exitPerimeter=0;entryX=0.5;entryY=0;entryDx=0;entryDy=0;entryPerimeter=0;" parent="1" source="SpF6GZIDmAaOeA5q9CdE-84" target="SpF6GZIDmAaOeA5q9CdE-90" edge="1">
          <mxGeometry relative="1" as="geometry" />
        </mxCell>
        <mxCell id="SpF6GZIDmAaOeA5q9CdE-93" value="Edit Cart" style="rounded=1;whiteSpace=wrap;html=1;absoluteArcSize=1;arcSize=14;strokeWidth=2;" parent="1" vertex="1">
          <mxGeometry x="535" y="1270" width="100" height="50" as="geometry" />
        </mxCell>
        <mxCell id="SpF6GZIDmAaOeA5q9CdE-94" value="Delete Product from Cart" style="rounded=1;whiteSpace=wrap;html=1;absoluteArcSize=1;arcSize=14;strokeWidth=2;" parent="1" vertex="1">
          <mxGeometry x="535" y="1345" width="100" height="50" as="geometry" />
        </mxCell>
        <mxCell id="SpF6GZIDmAaOeA5q9CdE-97" style="edgeStyle=orthogonalEdgeStyle;rounded=0;orthogonalLoop=1;jettySize=auto;html=1;exitX=0.5;exitY=0;exitDx=0;exitDy=0;entryX=1;entryY=0.5;entryDx=0;entryDy=0;entryPerimeter=0;" parent="1" source="SpF6GZIDmAaOeA5q9CdE-93" target="SpF6GZIDmAaOeA5q9CdE-84" edge="1">
          <mxGeometry relative="1" as="geometry" />
        </mxCell>
        <mxCell id="SpF6GZIDmAaOeA5q9CdE-98" style="edgeStyle=orthogonalEdgeStyle;rounded=0;orthogonalLoop=1;jettySize=auto;html=1;exitX=1;exitY=0.5;exitDx=0;exitDy=0;entryX=1;entryY=0.5;entryDx=0;entryDy=0;entryPerimeter=0;" parent="1" source="SpF6GZIDmAaOeA5q9CdE-94" target="SpF6GZIDmAaOeA5q9CdE-84" edge="1">
          <mxGeometry relative="1" as="geometry" />
        </mxCell>
        <mxCell id="SpF6GZIDmAaOeA5q9CdE-106" style="edgeStyle=orthogonalEdgeStyle;rounded=0;orthogonalLoop=1;jettySize=auto;html=1;exitX=0.5;exitY=1;exitDx=0;exitDy=0;entryX=0.5;entryY=0;entryDx=0;entryDy=0;" parent="1" source="SpF6GZIDmAaOeA5q9CdE-100" target="SpF6GZIDmAaOeA5q9CdE-101" edge="1">
          <mxGeometry relative="1" as="geometry" />
        </mxCell>
        <mxCell id="SpF6GZIDmAaOeA5q9CdE-100" value="Payment" style="rounded=1;whiteSpace=wrap;html=1;absoluteArcSize=1;arcSize=14;strokeWidth=2;" parent="1" vertex="1">
          <mxGeometry x="380" y="1560" width="100" height="50" as="geometry" />
        </mxCell>
        <mxCell id="SpF6GZIDmAaOeA5q9CdE-108" style="edgeStyle=orthogonalEdgeStyle;rounded=0;orthogonalLoop=1;jettySize=auto;html=1;exitX=0.5;exitY=1;exitDx=0;exitDy=0;entryX=0.5;entryY=0;entryDx=0;entryDy=0;" parent="1" source="SpF6GZIDmAaOeA5q9CdE-101" target="SpF6GZIDmAaOeA5q9CdE-107" edge="1">
          <mxGeometry relative="1" as="geometry" />
        </mxCell>
        <mxCell id="SpF6GZIDmAaOeA5q9CdE-101" value="View Order&lt;br&gt;Status" style="rounded=1;whiteSpace=wrap;html=1;absoluteArcSize=1;arcSize=14;strokeWidth=2;" parent="1" vertex="1">
          <mxGeometry x="380" y="1660" width="100" height="50" as="geometry" />
        </mxCell>
        <mxCell id="SpF6GZIDmAaOeA5q9CdE-112" style="edgeStyle=orthogonalEdgeStyle;rounded=0;orthogonalLoop=1;jettySize=auto;html=1;exitX=0.5;exitY=1;exitDx=0;exitDy=0;entryX=0.5;entryY=0;entryDx=0;entryDy=0;" parent="1" source="SpF6GZIDmAaOeA5q9CdE-107" target="SpF6GZIDmAaOeA5q9CdE-111" edge="1">
          <mxGeometry relative="1" as="geometry" />
        </mxCell>
        <mxCell id="SpF6GZIDmAaOeA5q9CdE-107" value="View Order&lt;br&gt;Status" style="rounded=1;whiteSpace=wrap;html=1;absoluteArcSize=1;arcSize=14;strokeWidth=2;" parent="1" vertex="1">
          <mxGeometry x="380" y="1760" width="100" height="50" as="geometry" />
        </mxCell>
        <mxCell id="SpF6GZIDmAaOeA5q9CdE-109" value="End" style="strokeWidth=2;html=1;shape=mxgraph.flowchart.terminator;whiteSpace=wrap;" parent="1" vertex="1">
          <mxGeometry x="380" y="1960" width="100" height="60" as="geometry" />
        </mxCell>
        <mxCell id="SpF6GZIDmAaOeA5q9CdE-111" value="Receive Product" style="rounded=1;whiteSpace=wrap;html=1;absoluteArcSize=1;arcSize=14;strokeWidth=2;" parent="1" vertex="1">
          <mxGeometry x="380" y="1860" width="100" height="50" as="geometry" />
        </mxCell>
        <mxCell id="SpF6GZIDmAaOeA5q9CdE-113" style="edgeStyle=orthogonalEdgeStyle;rounded=0;orthogonalLoop=1;jettySize=auto;html=1;exitX=0.5;exitY=1;exitDx=0;exitDy=0;entryX=0.5;entryY=0;entryDx=0;entryDy=0;entryPerimeter=0;" parent="1" source="SpF6GZIDmAaOeA5q9CdE-111" target="SpF6GZIDmAaOeA5q9CdE-109" edge="1">
          <mxGeometry relative="1" as="geometry" />
        </mxCell>
        <mxCell id="SpF6GZIDmAaOeA5q9CdE-131" style="edgeStyle=orthogonalEdgeStyle;rounded=0;orthogonalLoop=1;jettySize=auto;html=1;exitX=0.5;exitY=1;exitDx=0;exitDy=0;exitPerimeter=0;entryX=0.5;entryY=0;entryDx=0;entryDy=0;" parent="1" source="SpF6GZIDmAaOeA5q9CdE-123" target="SpF6GZIDmAaOeA5q9CdE-125" edge="1">
          <mxGeometry relative="1" as="geometry" />
        </mxCell>
        <mxCell id="SpF6GZIDmAaOeA5q9CdE-138" style="edgeStyle=orthogonalEdgeStyle;rounded=0;orthogonalLoop=1;jettySize=auto;html=1;exitX=1;exitY=0.5;exitDx=0;exitDy=0;exitPerimeter=0;entryX=0;entryY=0.5;entryDx=0;entryDy=0;" parent="1" source="SpF6GZIDmAaOeA5q9CdE-123" target="SpF6GZIDmAaOeA5q9CdE-137" edge="1">
          <mxGeometry relative="1" as="geometry" />
        </mxCell>
        <mxCell id="SpF6GZIDmAaOeA5q9CdE-123" value="&lt;span style=&quot;background-color: rgb(255, 255, 255);&quot;&gt;Is there any issues with &lt;br&gt;Stock or &lt;br&gt;Product?&lt;/span&gt;" style="strokeWidth=2;html=1;shape=mxgraph.flowchart.decision;whiteSpace=wrap;" parent="1" vertex="1">
          <mxGeometry x="780" y="685" width="100" height="100" as="geometry" />
        </mxCell>
        <mxCell id="SpF6GZIDmAaOeA5q9CdE-124" value="Check Stock &amp;amp; Product" style="rounded=1;whiteSpace=wrap;html=1;absoluteArcSize=1;arcSize=14;strokeWidth=2;" parent="1" vertex="1">
          <mxGeometry x="780" y="600" width="100" height="50" as="geometry" />
        </mxCell>
        <mxCell id="SpF6GZIDmAaOeA5q9CdE-134" style="edgeStyle=orthogonalEdgeStyle;rounded=0;orthogonalLoop=1;jettySize=auto;html=1;exitX=0.5;exitY=1;exitDx=0;exitDy=0;entryX=0.5;entryY=0;entryDx=0;entryDy=0;" parent="1" source="SpF6GZIDmAaOeA5q9CdE-125" target="SpF6GZIDmAaOeA5q9CdE-132" edge="1">
          <mxGeometry relative="1" as="geometry" />
        </mxCell>
        <mxCell id="SpF6GZIDmAaOeA5q9CdE-125" value="Pack Items" style="rounded=1;whiteSpace=wrap;html=1;absoluteArcSize=1;arcSize=14;strokeWidth=2;" parent="1" vertex="1">
          <mxGeometry x="780" y="830" width="100" height="50" as="geometry" />
        </mxCell>
        <mxCell id="SpF6GZIDmAaOeA5q9CdE-130" style="edgeStyle=orthogonalEdgeStyle;rounded=0;orthogonalLoop=1;jettySize=auto;html=1;exitX=0.5;exitY=1;exitDx=0;exitDy=0;entryX=0.5;entryY=0;entryDx=0;entryDy=0;entryPerimeter=0;" parent="1" source="SpF6GZIDmAaOeA5q9CdE-124" target="SpF6GZIDmAaOeA5q9CdE-123" edge="1">
          <mxGeometry relative="1" as="geometry" />
        </mxCell>
        <mxCell id="SpF6GZIDmAaOeA5q9CdE-132" value="Send Items" style="rounded=1;whiteSpace=wrap;html=1;absoluteArcSize=1;arcSize=14;strokeWidth=2;" parent="1" vertex="1">
          <mxGeometry x="780" y="920" width="100" height="50" as="geometry" />
        </mxCell>
        <mxCell id="SpF6GZIDmAaOeA5q9CdE-133" value="End" style="strokeWidth=2;html=1;shape=mxgraph.flowchart.terminator;whiteSpace=wrap;" parent="1" vertex="1">
          <mxGeometry x="780" y="1010" width="100" height="60" as="geometry" />
        </mxCell>
        <mxCell id="SpF6GZIDmAaOeA5q9CdE-135" style="edgeStyle=orthogonalEdgeStyle;rounded=0;orthogonalLoop=1;jettySize=auto;html=1;exitX=0.5;exitY=1;exitDx=0;exitDy=0;entryX=0.5;entryY=0;entryDx=0;entryDy=0;entryPerimeter=0;" parent="1" source="SpF6GZIDmAaOeA5q9CdE-132" target="SpF6GZIDmAaOeA5q9CdE-133" edge="1">
          <mxGeometry relative="1" as="geometry" />
        </mxCell>
        <mxCell id="SpF6GZIDmAaOeA5q9CdE-142" style="edgeStyle=orthogonalEdgeStyle;rounded=0;orthogonalLoop=1;jettySize=auto;html=1;exitX=0.5;exitY=1;exitDx=0;exitDy=0;entryX=0.5;entryY=0;entryDx=0;entryDy=0;" parent="1" source="SpF6GZIDmAaOeA5q9CdE-137" target="SpF6GZIDmAaOeA5q9CdE-141" edge="1">
          <mxGeometry relative="1" as="geometry" />
        </mxCell>
        <mxCell id="SpF6GZIDmAaOeA5q9CdE-137" value="Notify customers there will be delays" style="rounded=1;whiteSpace=wrap;html=1;absoluteArcSize=1;arcSize=14;strokeWidth=2;" parent="1" vertex="1">
          <mxGeometry x="920" y="710" width="100" height="50" as="geometry" />
        </mxCell>
        <mxCell id="SpF6GZIDmAaOeA5q9CdE-158" style="edgeStyle=orthogonalEdgeStyle;rounded=0;orthogonalLoop=1;jettySize=auto;html=1;exitX=0;exitY=0.5;exitDx=0;exitDy=0;entryX=1;entryY=0.5;entryDx=0;entryDy=0;" parent="1" source="SpF6GZIDmAaOeA5q9CdE-141" target="SpF6GZIDmAaOeA5q9CdE-125" edge="1">
          <mxGeometry relative="1" as="geometry" />
        </mxCell>
        <mxCell id="SpF6GZIDmAaOeA5q9CdE-159" style="edgeStyle=orthogonalEdgeStyle;rounded=0;orthogonalLoop=1;jettySize=auto;html=1;exitX=1;exitY=0.5;exitDx=0;exitDy=0;entryX=0.25;entryY=1;entryDx=0;entryDy=0;" parent="1" source="SpF6GZIDmAaOeA5q9CdE-141" target="SpF6GZIDmAaOeA5q9CdE-26" edge="1">
          <mxGeometry relative="1" as="geometry" />
        </mxCell>
        <mxCell id="SpF6GZIDmAaOeA5q9CdE-141" value="Order Items from Suppliers" style="rounded=1;whiteSpace=wrap;html=1;absoluteArcSize=1;arcSize=14;strokeWidth=2;" parent="1" vertex="1">
          <mxGeometry x="920" y="830" width="100" height="50" as="geometry" />
        </mxCell>
        <mxCell id="SpF6GZIDmAaOeA5q9CdE-145" value="Make a New Product Listing" style="rounded=1;whiteSpace=wrap;html=1;absoluteArcSize=1;arcSize=14;strokeWidth=2;" parent="1" vertex="1">
          <mxGeometry x="1200" y="650" width="100" height="50" as="geometry" />
        </mxCell>
        <mxCell id="SpF6GZIDmAaOeA5q9CdE-148" style="edgeStyle=orthogonalEdgeStyle;rounded=0;orthogonalLoop=1;jettySize=auto;html=1;exitX=0.5;exitY=1;exitDx=0;exitDy=0;exitPerimeter=0;entryX=0.5;entryY=0;entryDx=0;entryDy=0;" parent="1" source="SpF6GZIDmAaOeA5q9CdE-147" target="SpF6GZIDmAaOeA5q9CdE-145" edge="1">
          <mxGeometry relative="1" as="geometry" />
        </mxCell>
        <mxCell id="SpF6GZIDmAaOeA5q9CdE-149" style="edgeStyle=orthogonalEdgeStyle;rounded=0;orthogonalLoop=1;jettySize=auto;html=1;exitX=0.5;exitY=1;exitDx=0;exitDy=0;exitPerimeter=0;entryX=0.5;entryY=0;entryDx=0;entryDy=0;" parent="1" source="SpF6GZIDmAaOeA5q9CdE-147" target="SpF6GZIDmAaOeA5q9CdE-26" edge="1">
          <mxGeometry relative="1" as="geometry" />
        </mxCell>
        <mxCell id="SpF6GZIDmAaOeA5q9CdE-147" value="&lt;span style=&quot;background-color: rgb(255, 255, 255);&quot;&gt;Make new &lt;br&gt;or Edit Product Listing / &lt;br&gt;Stock?&lt;/span&gt;" style="strokeWidth=2;html=1;shape=mxgraph.flowchart.decision;whiteSpace=wrap;" parent="1" vertex="1">
          <mxGeometry x="1050" y="505" width="100" height="100" as="geometry" />
        </mxCell>
        <mxCell id="SpF6GZIDmAaOeA5q9CdE-152" style="edgeStyle=orthogonalEdgeStyle;rounded=0;orthogonalLoop=1;jettySize=auto;html=1;exitX=1;exitY=0.5;exitDx=0;exitDy=0;entryX=1;entryY=0.5;entryDx=0;entryDy=0;entryPerimeter=0;" parent="1" source="SpF6GZIDmAaOeA5q9CdE-145" target="SpF6GZIDmAaOeA5q9CdE-147" edge="1">
          <mxGeometry relative="1" as="geometry">
            <Array as="points">
              <mxPoint x="1310" y="675" />
              <mxPoint x="1310" y="555" />
            </Array>
          </mxGeometry>
        </mxCell>
        <mxCell id="SpF6GZIDmAaOeA5q9CdE-155" style="edgeStyle=orthogonalEdgeStyle;rounded=0;orthogonalLoop=1;jettySize=auto;html=1;exitX=0.5;exitY=1;exitDx=0;exitDy=0;entryX=1;entryY=0.5;entryDx=0;entryDy=0;entryPerimeter=0;" parent="1" source="SpF6GZIDmAaOeA5q9CdE-26" target="SpF6GZIDmAaOeA5q9CdE-147" edge="1">
          <mxGeometry relative="1" as="geometry">
            <Array as="points">
              <mxPoint x="1100" y="720" />
              <mxPoint x="1330" y="720" />
              <mxPoint x="1330" y="555" />
            </Array>
          </mxGeometry>
        </mxCell>
        <mxCell id="SpF6GZIDmAaOeA5q9CdE-162" style="edgeStyle=orthogonalEdgeStyle;rounded=0;orthogonalLoop=1;jettySize=auto;html=1;exitX=0.5;exitY=1;exitDx=0;exitDy=0;exitPerimeter=0;" parent="1" source="SpF6GZIDmAaOeA5q9CdE-160" target="SpF6GZIDmAaOeA5q9CdE-147" edge="1">
          <mxGeometry relative="1" as="geometry" />
        </mxCell>
        <mxCell id="SpF6GZIDmAaOeA5q9CdE-163" style="edgeStyle=orthogonalEdgeStyle;rounded=0;orthogonalLoop=1;jettySize=auto;html=1;exitX=0.5;exitY=1;exitDx=0;exitDy=0;exitPerimeter=0;entryX=0.5;entryY=0;entryDx=0;entryDy=0;" parent="1" source="SpF6GZIDmAaOeA5q9CdE-160" target="SpF6GZIDmAaOeA5q9CdE-30" edge="1">
          <mxGeometry relative="1" as="geometry" />
        </mxCell>
        <mxCell id="SpF6GZIDmAaOeA5q9CdE-160" value="&lt;span style=&quot;background-color: rgb(255, 255, 255);&quot;&gt;Process &lt;br&gt;Order /&lt;br&gt;Product &lt;br&gt;Management?&lt;/span&gt;" style="strokeWidth=2;html=1;shape=mxgraph.flowchart.decision;whiteSpace=wrap;" parent="1" vertex="1">
          <mxGeometry x="900" y="355" width="100" height="100" as="geometry" />
        </mxCell>
        <mxCell id="SpF6GZIDmAaOeA5q9CdE-161" style="edgeStyle=orthogonalEdgeStyle;rounded=0;orthogonalLoop=1;jettySize=auto;html=1;exitX=0.5;exitY=1;exitDx=0;exitDy=0;entryX=0.5;entryY=0;entryDx=0;entryDy=0;entryPerimeter=0;" parent="1" source="SpF6GZIDmAaOeA5q9CdE-6" target="SpF6GZIDmAaOeA5q9CdE-160" edge="1">
          <mxGeometry relative="1" as="geometry" />
        </mxCell>
      </root>
    </mxGraphModel>
  </diagram>
</mxfile>
